<svg width="24" height="25" viewBox="0 0 24 25" fill="none" xmlns="http://www.w3.org/2000/svg">
  <path d="M2.98789 21.5C2.80456 21.5 2.63789 21.4543 2.48789 21.363C2.33789 21.2717 2.22123 21.1507 2.13789 21C2.05456 20.8493 2.00889 20.6867 2.00089 20.512C1.99289 20.3373 2.03856 20.1667 2.13789 20L11.3879 4C11.4879 3.83333 11.6172 3.70833 11.7759 3.625C11.9346 3.54167 12.0969 3.5 12.2629 3.5C12.4289 3.5 12.5916 3.54167 12.7509 3.625C12.9102 3.70833 13.0392 3.83333 13.1379 4L22.3879 20C22.4879 20.1667 22.5339 20.3377 22.5259 20.513C22.5179 20.6883 22.4719 20.8507 22.3879 21C22.3039 21.1493 22.1872 21.2703 22.0379 21.363C21.8886 21.4557 21.7219 21.5013 21.5379 21.5H2.98789ZM12.2629 18.5C12.5462 18.5 12.7839 18.404 12.9759 18.212C13.1679 18.02 13.2636 17.7827 13.2629 17.5C13.2622 17.2173 13.1662 16.98 12.9749 16.788C12.7836 16.596 12.5462 16.5 12.2629 16.5C11.9796 16.5 11.7422 16.596 11.5509 16.788C11.3596 16.98 11.2636 17.2173 11.2629 17.5C11.2622 17.7827 11.3582 18.0203 11.5509 18.213C11.7436 18.4057 11.9809 18.5013 12.2629 18.5ZM12.2629 15.5C12.5462 15.5 12.7839 15.404 12.9759 15.212C13.1679 15.02 13.2636 14.7827 13.2629 14.5V11.5C13.2629 11.2167 13.1669 10.9793 12.9749 10.788C12.7829 10.5967 12.5456 10.5007 12.2629 10.5C11.9802 10.4993 11.7429 10.5953 11.5509 10.788C11.3589 10.9807 11.2629 11.218 11.2629 11.5V14.5C11.2629 14.7833 11.3589 15.021 11.5509 15.213C11.7429 15.405 11.9802 15.5007 12.2629 15.5Z" fill="#8EAD75" />
</svg>