<svg width="24" height="24" viewBox="0 0 24 24" fill="none" xmlns="http://www.w3.org/2000/svg">
<path d="M3.66675 18C3.38342 18 3.14608 17.904 2.95475 17.712C2.76342 17.52 2.66742 17.2827 2.66675 17C2.66608 16.7173 2.76208 16.48 2.95475 16.288C3.14742 16.096 3.38475 16 3.66675 16H19.6667C19.9501 16 20.1877 16.096 20.3797 16.288C20.5717 16.48 20.6674 16.7173 20.6667 17C20.6661 17.2827 20.5701 17.5203 20.3787 17.713C20.1874 17.9057 19.9501 18.0013 19.6667 18H3.66675ZM3.66675 13C3.38342 13 3.14608 12.904 2.95475 12.712C2.76342 12.52 2.66742 12.2827 2.66675 12C2.66608 11.7173 2.76208 11.48 2.95475 11.288C3.14742 11.096 3.38475 11 3.66675 11H19.6667C19.9501 11 20.1877 11.096 20.3797 11.288C20.5717 11.48 20.6674 11.7173 20.6667 12C20.6661 12.2827 20.5701 12.5203 20.3787 12.713C20.1874 12.9057 19.9501 13.0013 19.6667 13H3.66675ZM3.66675 8C3.38342 8 3.14608 7.904 2.95475 7.712C2.76342 7.52 2.66742 7.28267 2.66675 7C2.66608 6.71733 2.76208 6.48 2.95475 6.288C3.14742 6.096 3.38475 6 3.66675 6H19.6667C19.9501 6 20.1877 6.096 20.3797 6.288C20.5717 6.48 20.6674 6.71733 20.6667 7C20.6661 7.28267 20.5701 7.52033 20.3787 7.713C20.1874 7.90566 19.9501 8.00133 19.6667 8H3.66675Z" fill="#5E8A3B"/>
</svg>
