<svg width="16" height="12" viewBox="0 0 16 12" fill="none" xmlns="http://www.w3.org/2000/svg">
<path d="M5.79671 9.38085L14.0177 0.320713C14.2117 0.106904 14.438 0 14.6967 0C14.9554 0 15.1817 0.106904 15.3757 0.320713C15.5697 0.534521 15.6667 0.788597 15.6667 1.08294C15.6667 1.37728 15.5697 1.631 15.3757 1.8441L6.47573 11.6793C6.28172 11.8931 6.05538 12 5.79671 12C5.53803 12 5.31169 11.8931 5.11769 11.6793L0.946564 7.08241C0.752558 6.8686 0.659436 6.61488 0.667196 6.32125C0.674956 6.02762 0.776162 5.77354 0.970814 5.55902C1.16547 5.3445 1.39601 5.23759 1.66245 5.23831C1.92888 5.23902 2.1591 5.34592 2.35311 5.55902L5.79671 9.38085Z" fill="white"/>
</svg>
