<svg width="24" height="25" viewBox="0 0 24 25" fill="none" xmlns="http://www.w3.org/2000/svg">
<path d="M11.325 17.5H12.825V11.5H11.325V17.5ZM11.9995 9.65C12.2332 9.65 12.4292 9.57333 12.5875 9.42C12.7458 9.26667 12.825 9.07667 12.825 8.85C12.825 8.60917 12.746 8.40733 12.588 8.2445C12.43 8.0815 12.2342 8 12.0005 8C11.7668 8 11.5708 8.0815 11.4125 8.2445C11.2542 8.40733 11.175 8.60917 11.175 8.85C11.175 9.07667 11.254 9.26667 11.412 9.42C11.57 9.57333 11.7658 9.65 11.9995 9.65ZM12.0068 22.5C10.6277 22.5 9.33192 22.2375 8.11925 21.7125C6.90642 21.1875 5.84583 20.4708 4.9375 19.5625C4.02917 18.6542 3.3125 17.593 2.7875 16.379C2.2625 15.165 2 13.8678 2 12.4875C2 11.1072 2.2625 9.81 2.7875 8.596C3.3125 7.382 4.02917 6.325 4.9375 5.425C5.84583 4.525 6.907 3.8125 8.121 3.2875C9.335 2.7625 10.6322 2.5 12.0125 2.5C13.3928 2.5 14.69 2.7625 15.904 3.2875C17.118 3.8125 18.175 4.525 19.075 5.425C19.975 6.325 20.6875 7.38333 21.2125 8.6C21.7375 9.81667 22 11.1144 22 12.4933C22 13.8723 21.7375 15.1681 21.2125 16.3807C20.6875 17.5936 19.975 18.6527 19.075 19.558C18.175 20.4632 17.1167 21.1798 15.9 21.708C14.6833 22.236 13.3856 22.5 12.0068 22.5Z" fill="#8EAD75"/>
</svg>
