<svg width="24" height="24" viewBox="0 0 24 24" fill="none" xmlns="http://www.w3.org/2000/svg">
<g clip-path="url(#clip0_434_13968)">
<path fill-rule="evenodd" clip-rule="evenodd" d="M21 3C21.7652 2.99996 22.5015 3.29233 23.0583 3.81728C23.615 4.34224 23.9501 5.06011 23.995 5.824L24 6V17C24 17.7652 23.7077 18.5015 23.1827 19.0583C22.6578 19.615 21.9399 19.9501 21.176 19.995L21 20H3C2.23479 20 1.49849 19.7077 0.941739 19.1827C0.384993 18.6578 0.0498925 17.9399 0.00500011 17.176L0 17L4.66045e-09 6C-4.26217e-05 5.23479 0.292325 4.49849 0.817284 3.94174C1.34224 3.38499 2.06011 3.04989 2.824 3.005L3 3L21 3ZM21 5H3C2.75507 5.00003 2.51866 5.08996 2.33563 5.25272C2.15259 5.41547 2.03566 5.63975 2.007 5.883L2 6V17C2.00003 17.2449 2.08996 17.4813 2.25272 17.6644C2.41547 17.8474 2.63975 17.9643 2.883 17.993L3 18H21C21.2449 18 21.4813 17.91 21.6644 17.7473C21.8474 17.5845 21.9643 17.3603 21.993 17.117L22 17V6C22 5.75507 21.91 5.51866 21.7473 5.33563C21.5845 5.15259 21.3603 5.03566 21.117 5.007L21 5ZM12.354 8.23211C12.6839 7.66063 13.2186 7.23595 13.85 7.04413C14.4813 6.85232 15.162 6.90772 15.754 7.19911L15.906 7.27911L16.499 7.62311C16.8078 7.80126 17.0785 8.03851 17.2955 8.32129C17.5126 8.60407 17.6719 8.92685 17.7642 9.27119C17.8565 9.61553 17.88 9.97468 17.8335 10.3281C17.787 10.6816 17.6713 11.0224 17.493 11.3311C17.1988 11.8397 16.7737 12.2603 16.262 12.549C15.7502 12.8378 15.1705 12.9842 14.583 12.9731L14.378 12.9631L15.346 14.6401C15.4746 14.8611 15.5136 15.1229 15.4551 15.3718C15.3967 15.6207 15.2451 15.8377 15.0315 15.9783C14.818 16.1189 14.5587 16.1723 14.3069 16.1276C14.0552 16.083 13.8301 15.9436 13.678 15.7381L13.614 15.6401L12 12.8451L10.386 15.6401C10.2578 15.8595 10.0508 16.0219 9.80711 16.0942C9.56345 16.1665 9.3014 16.1433 9.07423 16.0293C8.84705 15.9154 8.6718 15.7192 8.58408 15.4806C8.49637 15.2421 8.50277 14.9791 8.602 14.7451L8.654 14.6401L9.622 12.9631C9.00157 13.0136 8.37954 12.8871 7.82816 12.5982C7.27677 12.3093 6.81865 11.87 6.507 11.3311C6.16229 10.7344 6.05749 10.0289 6.21386 9.35773C6.37023 8.68657 6.77605 8.10003 7.349 7.71711L7.501 7.62311L8.095 7.28011C8.66638 6.95047 9.34169 6.85034 9.98413 7C10.6266 7.14966 11.1881 7.53791 11.555 8.08611L11.646 8.23211L12 8.84411L12.354 8.23211ZM14.086 9.23211L13.386 10.4441L14.005 10.8011C14.3002 10.9715 14.651 11.0177 14.9803 10.9295C15.3095 10.8414 15.5903 10.6262 15.761 10.3311C15.808 10.2498 15.8384 10.1601 15.8507 10.0671C15.8629 9.97399 15.8567 9.87944 15.8324 9.78878C15.808 9.69813 15.7661 9.61317 15.7089 9.53876C15.6517 9.46434 15.5803 9.40194 15.499 9.35511L14.905 9.01211C14.8367 8.97267 14.7613 8.94707 14.6832 8.93678C14.605 8.92649 14.5256 8.93172 14.4494 8.95215C14.3732 8.97258 14.3019 9.00782 14.2393 9.05586C14.1768 9.1039 14.1244 9.16379 14.085 9.23211M9.913 9.23211C9.84198 9.10888 9.72949 9.01489 9.5956 8.96691C9.46171 8.91892 9.31513 8.92005 9.182 8.97011L9.094 9.01211L8.5 9.35511C8.41866 9.40194 8.34734 9.46434 8.29014 9.53876C8.23294 9.61317 8.19097 9.69813 8.16664 9.78878C8.1423 9.87944 8.13608 9.97399 8.14832 10.0671C8.16057 10.1601 8.19104 10.2498 8.238 10.3311C8.39726 10.6068 8.65313 10.8136 8.95608 10.9115C9.25903 11.0094 9.58752 10.9914 9.878 10.8611L9.995 10.8011L10.613 10.4441L9.913 9.23211Z" fill="#8EAD75"/>
</g>
<defs>
<clipPath id="clip0_434_13968">
<rect width="24" height="24" fill="white"/>
</clipPath>
</defs>
</svg>
