<svg width="24" height="24" viewBox="0 0 24 24" fill="none" xmlns="http://www.w3.org/2000/svg">
<path d="M23.7865 11.6574C23.6844 11.4843 23.5477 11.3325 23.3842 11.2109C23.2207 11.0893 23.0338 11.0005 22.8344 10.9494C22.1108 10.7695 21.3631 10.6972 20.617 10.735C21.0171 8.81767 20.717 7.30119 20.411 6.40193C20.289 6.03253 20.0289 5.72025 19.6815 5.52596C19.3341 5.33167 18.9242 5.26931 18.5317 5.35102C17.5139 5.56986 16.5462 5.96662 15.6763 6.5217C15.039 5.26475 14.1114 4.16595 12.9648 3.31006C12.687 3.1088 12.349 3 12.0017 3C11.6544 3 11.3164 3.1088 11.0385 3.31006C9.89174 4.1657 8.96403 5.26456 8.32713 6.5217C7.45718 5.96662 6.48944 5.56986 5.47169 5.35102C5.07923 5.26931 4.66933 5.33167 4.32189 5.52596C3.97445 5.72025 3.71439 6.03253 3.5924 6.40193C3.29235 7.30119 2.99231 8.8167 3.38637 10.735C2.64027 10.6972 1.89256 10.7695 1.16903 10.9494C0.969583 11.0005 0.782664 11.0893 0.619185 11.2109C0.455706 11.3325 0.318942 11.4843 0.216881 11.6574C0.11007 11.8348 0.0409092 12.031 0.0134343 12.2345C-0.0140406 12.438 0.000720439 12.6447 0.0568562 12.8426C0.395908 14.0568 1.43707 16.3663 4.59055 18.186C7.74404 20.0058 10.5145 20 12.0067 20C13.4989 20 16.2743 20 19.4078 18.186C22.5613 16.3663 23.6025 14.0568 23.9415 12.8426C23.9984 12.645 24.014 12.4385 23.9874 12.235C23.9608 12.0315 23.8925 11.8352 23.7865 11.6574ZM5.11463 6.87716C5.11583 6.87236 5.11888 6.86819 5.12315 6.8655C5.12743 6.86281 5.13261 6.86179 5.13764 6.86267C6.06829 7.06562 6.94653 7.44912 7.71903 7.98989C7.36735 9.10124 7.19266 10.2578 7.20095 11.4198C7.20095 13.2299 7.57801 14.7039 8.11209 15.8901C7.35283 15.1561 6.69586 14.3298 6.15779 13.4318C4.35552 10.4008 4.73057 8.02273 5.11463 6.87716ZM5.41468 16.8598C2.74727 15.3221 1.88214 13.4366 1.60009 12.4369C2.33602 12.2619 3.09969 12.2235 3.85044 12.3239C4.10104 12.9723 4.40715 13.5994 4.76558 14.1987C5.64561 15.6639 6.79848 16.9594 8.1661 18.0199C7.19904 17.7513 6.27265 17.3613 5.41068 16.8598H5.41468ZM12.0017 18.3C11.0685 17.6297 8.8012 15.5732 8.8012 11.4198C8.8012 7.31761 11.0395 5.24477 12.0017 4.54545C12.9638 5.2467 15.2022 7.31955 15.2022 11.4218C15.2022 15.5732 12.9348 17.6297 12.0017 18.3ZM16.2844 7.98989C17.0569 7.44947 17.9352 7.0663 18.8657 6.86364C18.8708 6.86276 18.876 6.86377 18.8802 6.86647C18.8845 6.86916 18.8876 6.87333 18.8888 6.87812C19.2728 8.02273 19.6479 10.4008 17.8456 13.4318C17.308 14.331 16.651 15.1584 15.8913 15.893C16.4254 14.7087 16.8024 13.2328 16.8024 11.4227C16.811 10.2597 16.6363 9.10217 16.2844 7.98989ZM22.4033 12.4389C22.1262 13.4289 21.2631 15.3182 18.5937 16.8598C17.7317 17.3609 16.8053 17.7506 15.8383 18.0189C17.2059 16.9584 18.3588 15.663 19.2388 14.1978C19.5972 13.5985 19.9033 12.9714 20.1539 12.323C20.9045 12.2231 21.6679 12.2621 22.4033 12.4379V12.4389Z" fill="#8EAD75"/>
</svg>
