<svg width="41" height="40" viewBox="0 0 41 40" fill="none" xmlns="http://www.w3.org/2000/svg">
<rect x="0.5" width="40" height="40" rx="20" fill="#5E8A3B"/>
<g clip-path="url(#clip0_474_741)">
<path fill-rule="evenodd" clip-rule="evenodd" d="M17.2338 26.2377C17.7945 26.99 18.3366 27.7618 18.783 28.588C19.221 29.4 19.518 30.239 19.802 31.113C19.8134 31.1481 19.8247 31.1848 19.8364 31.2225C19.9436 31.5688 20.0767 31.9991 20.497 32H20.504C20.8935 31.997 21.021 31.6297 21.1298 31.3165L21.131 31.313C21.1796 31.1726 21.2259 31.0314 21.2722 30.8901C21.3365 30.6943 21.4007 30.4985 21.471 30.305C21.591 29.971 21.713 29.638 21.854 29.313C22.279 28.336 22.904 27.444 23.523 26.586C23.9895 25.9403 24.4903 25.3161 24.9915 24.6915C25.9448 23.5033 26.8993 22.3137 27.621 20.972C28.8948 18.6038 29.2073 15.7175 28.1993 13.2L17.2338 26.2377ZM15.7296 24.3086C14.8438 23.2007 13.946 22.078 13.2853 20.8152L16.9964 16.4028C17.0027 16.5631 17.0205 16.7266 17.047 16.91C17.0902 17.1556 17.1603 17.3957 17.256 17.626C17.957 19.322 19.907 20.214 21.648 19.613L21.677 19.603L16.693 25.528C16.449 25.214 16.2033 24.902 15.956 24.592C15.8807 24.4976 15.8052 24.4032 15.7296 24.3086ZM17.56 14.3481L12.871 19.923C11.7249 17.0776 12.031 13.7243 13.899 11.2679L17.56 14.3481ZM23.569 8.58813L19.9978 12.8341C21.4128 12.639 22.861 13.3361 23.569 14.615C23.745 14.934 23.892 15.298 23.946 15.66C24.014 16.106 24.031 16.433 23.958 16.88L23.955 16.896L27.791 12.335C26.8572 10.6316 25.3631 9.30953 23.569 8.58813ZM22.661 8.28502L18.1525 13.6451L14.499 10.5708C15.2448 9.8 16.1313 9.17781 17.1114 8.73834C18.173 8.26234 19.3216 8.01098 20.485 8.00002C21.2035 7.99849 21.9191 8.09025 22.614 8.27302L22.661 8.28502Z" fill="white"/>
</g>
<defs>
<clipPath id="clip0_474_741">
<rect width="24" height="24" fill="white" transform="translate(8.5 8)"/>
</clipPath>
</defs>
</svg>
