<svg width="41" height="40" viewBox="0 0 41 40" fill="none" xmlns="http://www.w3.org/2000/svg">
<rect x="0.5" width="40" height="40" rx="20" fill="#5E8A3B"/>
<g clip-path="url(#clip0_474_727)">
<path fill-rule="evenodd" clip-rule="evenodd" d="M10.8984 17.6C10.8984 12.2979 15.2859 8 20.6984 8C26.111 8 30.4984 12.2979 30.4984 17.6C30.4984 20.2501 29.4023 22.6496 27.6295 24.3867C27.1667 24.8403 26.5402 25.3468 25.8626 25.8946C23.9436 27.446 21.6145 29.3289 21.4334 31.28C21.3967 31.6758 21.1042 32 20.6984 32C20.2927 32 20.0002 31.6758 19.9634 31.28C19.7824 29.3289 17.4533 27.446 15.5343 25.8946C14.8567 25.3468 14.2301 24.8403 13.7674 24.3867C11.9946 22.6496 10.8984 20.2501 10.8984 17.6ZM24.1284 17.6003C24.1284 19.4559 22.5928 20.9603 20.6985 20.9603C18.8041 20.9603 17.2685 19.4559 17.2685 17.6003C17.2685 15.7446 18.8041 14.2403 20.6985 14.2403C22.5928 14.2403 24.1284 15.7446 24.1284 17.6003Z" fill="white"/>
</g>
<defs>
<clipPath id="clip0_474_727">
<rect width="24" height="24" fill="white" transform="translate(8.5 8)"/>
</clipPath>
</defs>
</svg>
