<svg width="25" height="24" viewBox="0 0 25 24" fill="none" xmlns="http://www.w3.org/2000/svg">
<g clip-path="url(#clip0_2010_28522)">
<path d="M20.2632 6.17721C20.2631 5.91205 20.1578 5.65776 19.9703 5.47026C19.7828 5.28276 19.5285 5.17741 19.2633 5.17737L7.75436 5.17739C7.62159 5.17508 7.4897 5.19924 7.36637 5.24845C7.24304 5.29766 7.13075 5.37094 7.03604 5.46401C6.94134 5.55709 6.86612 5.66809 6.81477 5.79054C6.76342 5.913 6.73698 6.04445 6.73698 6.17724C6.73698 6.31002 6.76342 6.44148 6.81477 6.56393C6.86612 6.68638 6.94134 6.79739 7.03604 6.89046C7.13075 6.98353 7.24304 7.05681 7.36637 7.10603C7.4897 7.15524 7.62159 7.17939 7.75436 7.17709L16.8492 7.17706L6.23975 17.7865C6.05221 17.9741 5.94685 18.2284 5.94685 18.4936C5.94685 18.7588 6.05221 19.0132 6.23974 19.2007C6.42728 19.3883 6.68163 19.4936 6.94685 19.4936C7.21207 19.4936 7.46642 19.3883 7.65396 19.2007L18.2635 8.59128L18.2635 17.7717C18.268 18.0339 18.3754 18.2838 18.5624 18.4676C18.7494 18.6514 19.0011 18.7544 19.2633 18.7544C19.5255 18.7544 19.7772 18.6514 19.9642 18.4676C20.1513 18.2838 20.2586 18.0339 20.2632 17.7717L20.2632 6.17721Z" fill="white"/>
</g>
<defs>
<clipPath id="clip0_2010_28522">
<rect width="24" height="24" fill="white" transform="translate(0.5)"/>
</clipPath>
</defs>
</svg>
