<svg width="423" height="128" viewBox="0 0 423 128" fill="none" xmlns="http://www.w3.org/2000/svg">
<path d="M53.1288 40.2759C53.1288 41.4713 52.9081 43.9724 53.1288 45.5172C47.8874 41.1035 35.1977 36.9655 34.9219 37.5172C34.646 38.069 37.1288 46.8966 40.715 54.8966C39.6115 54.8046 36.9632 54.6207 35.1977 54.6207C31.7035 48.4598 24.9908 32.2759 28.0253 29.7931C30.5081 28.4138 44.8529 33.3793 53.1288 40.2759Z" fill="#5E8A3B"/>
<path fill-rule="evenodd" clip-rule="evenodd" d="M14.5077 95.7242C15.3353 91.5862 37.1284 62.069 62.2318 71.1724C42.6456 51.0345 13.1288 64.2759 12.8529 65.6552C12.8237 65.8009 12.9054 65.9867 13.0847 66.2069C15.3353 68.1379 23.1062 72.408 30.5077 75.8621C29.772 76.2299 28.0249 77.2414 26.0938 79.4483C10.9215 73.1035 -0.388511 65.931 0.714962 63.7241C7.0594 58.7586 39.6111 48.8276 59.4732 64.8276C50.9215 49.1035 53.6801 21.5172 65.5422 1.65517C66.4101 0.201796 67.4732 0 68.0253 0V12.6897C61.6801 23.4483 50.5353 46.8966 65.5422 68.9655C66.0939 65.931 64.4383 57.931 60.0249 52.4138C59.7487 50.4828 59.1973 49.3793 59.1973 45.2414C61.6697 47.9388 64.4387 52.6897 66.6456 59.0345C67.4199 61.2606 67.4732 63.1724 68.0253 63.1724V76.9655C67.7491 76.9655 67.0225 77.797 66.9215 78.069C56.1628 107.034 13.8456 99.0345 14.5077 95.7242ZM23.887 91.8621C37.956 72 51.4732 70.3448 61.6801 74.2069C55.5008 79.2828 45.1284 79.1724 39.6111 78.3448C38.0663 79.4483 36.0252 81.3793 35.1977 82.2069C49.7635 84.6345 60.0253 80.2759 63.887 76.9655C56.1628 98.7586 23.887 93.7931 23.887 91.8621Z" fill="#5E8A3B"/>
<path d="M39.6111 61.7931C41.818 62.069 44.5766 62.6207 46.2318 62.8966C47.5192 64.2759 50.9215 67.3103 53.4042 68.4138C51.7491 68.1379 49.2663 67.8621 46.2318 68.6897C44.2088 66.8912 40.0525 62.9941 39.6111 61.7931Z" fill="#5E8A3B"/>
<path d="M82.9215 40.2759C82.9215 41.4713 83.1422 43.9724 82.9215 45.5172C88.1629 41.1035 100.853 36.9655 101.128 37.5172C101.404 38.069 98.9215 46.8966 95.3353 54.8966C96.4387 54.8046 99.087 54.6207 100.853 54.6207C104.347 48.4598 111.059 32.2759 108.025 29.7931C105.542 28.4138 91.1973 33.3793 82.9215 40.2759Z" fill="#5E8A3B"/>
<path fill-rule="evenodd" clip-rule="evenodd" d="M121.543 95.7242C120.715 91.5862 98.9219 62.069 73.8184 71.1724C93.4046 51.0345 122.921 64.2759 123.197 65.6552C123.226 65.8009 123.145 65.9867 122.966 66.2069C120.715 68.1379 112.944 72.408 105.543 75.8621C106.278 76.2299 108.025 77.2414 109.956 79.4483C125.129 73.1035 136.439 65.931 135.335 63.7241C128.991 58.7586 96.4391 48.8276 76.577 64.8276C85.1288 49.1035 82.3701 21.5172 70.5081 1.65517C69.6401 0.201796 68.5774 0 68.0253 0V12.6897C74.3705 23.4483 85.515 46.8966 70.5081 68.9655C69.9564 65.931 71.6119 57.931 76.0253 52.4138C76.3016 50.4828 76.8529 49.3793 76.8529 45.2414C74.3806 47.9388 71.6115 52.6897 69.4046 59.0345C68.6303 61.2606 68.5774 63.1724 68.0253 63.1724V76.9655C68.3015 76.9655 69.0277 77.797 69.1288 78.069C79.8874 107.034 122.205 99.0345 121.543 95.7242ZM112.163 91.8621C98.0943 72 84.577 70.3448 74.3701 74.2069C80.5495 79.2828 90.9219 79.1724 96.4391 78.3448C97.9839 79.4483 100.025 81.3793 100.853 82.2069C86.2867 84.6345 76.0249 80.2759 72.1633 76.9655C79.8874 98.7586 112.163 93.7931 112.163 91.8621Z" fill="#5E8A3B"/>
<path d="M96.4391 61.7931C94.2322 62.069 91.4736 62.6207 89.8184 62.8966C88.5311 64.2759 85.1288 67.3103 82.646 68.4138C84.3012 68.1379 86.7839 67.8621 89.8184 68.6897C91.8414 66.8912 95.9977 62.9941 96.4391 61.7931Z" fill="#5E8A3B"/>
<path d="M8.16285 118.069C26.9215 102.897 66.9215 85.2414 132.301 116.414L120.99 122.759C92.5766 111.172 65.5422 90.7586 8.16285 118.069Z" fill="#5E8A3B"/>
<path d="M9.81802 123.31C34.0939 111.724 87.887 101.374 95.3353 124.138C86.4157 116.69 58.9766 107.034 20.5766 128L9.81802 123.31Z" fill="#5E8A3B"/>
<path d="M177.305 69.6793C174.81 69.6793 172.487 69.2739 170.336 68.4633C168.216 67.6215 166.361 66.4523 164.771 64.9557C163.212 63.4279 161.996 61.6351 161.123 59.5773C160.25 57.5195 159.813 55.2745 159.813 52.8426C159.813 50.4106 160.25 48.1657 161.123 46.1079C161.996 44.0501 163.227 42.2729 164.817 40.7763C166.407 39.2486 168.263 38.0793 170.383 37.2687C172.503 36.4268 174.826 36.0059 177.351 36.0059C180.033 36.0059 182.48 36.4736 184.694 37.409C186.908 38.3132 188.778 39.6695 190.306 41.4779L186.378 45.1726C185.193 43.8942 183.868 42.9433 182.402 42.3197C180.937 41.6649 179.347 41.3376 177.632 41.3376C175.917 41.3376 174.342 41.6182 172.908 42.1794C171.505 42.7406 170.274 43.5357 169.214 44.5646C168.185 45.5935 167.374 46.8094 166.782 48.2125C166.22 49.6156 165.94 51.159 165.94 52.8426C165.94 54.5263 166.22 56.0696 166.782 57.4727C167.374 58.8758 168.185 60.0917 169.214 61.1206C170.274 62.1495 171.505 62.9446 172.908 63.5058C174.342 64.067 175.917 64.3476 177.632 64.3476C179.347 64.3476 180.937 64.0359 182.402 63.4123C183.868 62.7575 185.193 61.7754 186.378 60.4659L190.306 64.2073C188.778 65.9846 186.908 67.3409 184.694 68.2762C182.48 69.2116 180.017 69.6793 177.305 69.6793ZM191.104 69.2116L205.836 36.4736H211.822L226.601 69.2116H220.24L207.566 39.7006H209.998L197.371 69.2116H191.104ZM197.885 61.6351L199.522 56.8647H217.2L218.837 61.6351H197.885ZM253.415 66.4055V41.6182H240.6L240.366 47.4174C240.272 49.6 240.132 51.6734 239.945 53.6377C239.789 55.5708 239.524 57.3324 239.15 58.9225C238.807 60.5127 238.324 61.8377 237.7 62.8978C237.077 63.9579 236.313 64.6595 235.408 65.0024L228.861 64.067C230.046 64.1294 231.012 63.7241 231.76 62.8511C232.54 61.9781 233.148 60.7621 233.584 59.2031C234.021 57.6442 234.349 55.8202 234.567 53.7312C234.785 51.611 234.941 49.3194 235.034 46.8562L235.408 36.4736H259.401V66.4055H253.415ZM227.738 76.1801L227.785 64.067H264.125V76.1801H258.512V69.2116H233.397V76.1801H227.738ZM285.049 69.6793C282.492 69.6793 280.138 69.2584 277.987 68.4165C275.835 67.5747 273.965 66.4055 272.375 64.9089C270.784 63.3811 269.553 61.6039 268.68 59.5773C267.807 57.5195 267.37 55.2745 267.37 52.8426C267.37 50.4106 267.807 48.1814 268.68 46.1547C269.553 44.0969 270.784 42.3197 272.375 40.8231C273.965 39.2953 275.835 38.1105 277.987 37.2687C280.138 36.4268 282.477 36.0059 285.002 36.0059C287.559 36.0059 289.897 36.4268 292.018 37.2687C294.169 38.1105 296.04 39.2953 297.63 40.8231C299.22 42.3197 300.451 44.0969 301.325 46.1547C302.197 48.1814 302.634 50.4106 302.634 52.8426C302.634 55.2745 302.197 57.5195 301.325 59.5773C300.451 61.6351 299.22 63.4123 297.63 64.9089C296.04 66.4055 294.169 67.5747 292.018 68.4165C289.897 69.2584 287.575 69.6793 285.049 69.6793ZM285.002 64.3476C286.655 64.3476 288.183 64.067 289.586 63.5058C290.989 62.9446 292.205 62.1495 293.234 61.1206C294.263 60.0605 295.058 58.8446 295.619 57.4727C296.211 56.0696 296.507 54.5263 296.507 52.8426C296.507 51.159 296.211 49.6312 295.619 48.2593C295.058 46.8562 294.263 45.6402 293.234 44.6113C292.205 43.5512 290.989 42.7406 289.586 42.1794C288.183 41.6182 286.655 41.3376 285.002 41.3376C283.35 41.3376 281.822 41.6182 280.419 42.1794C279.047 42.7406 277.831 43.5512 276.771 44.6113C275.742 45.6402 274.931 46.8562 274.339 48.2593C273.778 49.6312 273.497 51.159 273.497 52.8426C273.497 54.4951 273.778 56.0228 274.339 57.4259C274.931 58.829 275.742 60.0605 276.771 61.1206C277.8 62.1495 279.016 62.9446 280.419 63.5058C281.822 64.067 283.35 64.3476 285.002 64.3476ZM309.402 69.2116V36.4736H324.041C327.72 36.4736 330.589 37.2063 332.647 38.6717C334.704 40.106 335.733 42.1794 335.733 44.8919C335.733 47.5734 334.751 49.6467 332.787 51.1122C330.823 52.5464 328.235 53.2635 325.023 53.2635L325.865 51.5799C329.513 51.5799 332.335 52.3126 334.33 53.778C336.325 55.2434 337.323 57.3635 337.323 60.1385C337.323 62.9758 336.279 65.2051 334.19 66.8264C332.101 68.4165 329.014 69.2116 324.93 69.2116H309.402ZM315.389 64.5347H324.743C326.863 64.5347 328.468 64.145 329.56 63.3655C330.651 62.5549 331.197 61.3233 331.197 59.6708C331.197 58.0183 330.651 56.8179 329.56 56.0696C328.468 55.2902 326.863 54.9004 324.743 54.9004H315.389V64.5347ZM315.389 50.4574H323.527C325.491 50.4574 326.987 50.0676 328.016 49.2882C329.045 48.4775 329.56 47.3239 329.56 45.8273C329.56 44.2684 329.045 43.0991 328.016 42.3197C326.987 41.5402 325.491 41.1505 323.527 41.1505H315.389V50.4574ZM359.355 47.5577C363.253 47.5577 366.262 48.4308 368.382 50.1768C370.503 51.9228 371.562 54.5419 371.562 58.0339C371.562 61.7131 370.393 64.5036 368.055 66.4055C365.747 68.2762 362.52 69.2116 358.373 69.2116H344.296V36.4736H350.283V47.5577H359.355ZM358.093 64.5347C360.431 64.5347 362.24 63.9891 363.518 62.8978C364.827 61.8066 365.482 60.2164 365.482 58.1275C365.482 56.0696 364.843 54.573 363.565 53.6377C362.287 52.6711 360.463 52.1879 358.093 52.1879H350.283V64.5347H358.093ZM376.286 69.2116V36.4736H382.272V69.2116H376.286ZM391.522 69.2116V36.4736H397.508V59.7176L415.093 36.4736H420.752V69.2116H414.766V46.0144L397.181 69.2116H391.522ZM406.067 34.2755C403.261 34.2755 401.14 33.6831 399.706 32.4983C398.303 31.3135 397.586 29.6454 397.555 27.4941H401.811C401.842 28.6477 402.216 29.5363 402.933 30.1599C403.682 30.7834 404.726 31.0952 406.067 31.0952C407.407 31.0952 408.452 30.7834 409.2 30.1599C409.979 29.5363 410.385 28.6477 410.416 27.4941H414.625C414.594 29.6454 413.861 31.3135 412.427 32.4983C410.993 33.6831 408.873 34.2755 406.067 34.2755ZM162.292 116.108V83.3699H168.278V110.964H184.787V83.3699H190.821V116.108H162.292ZM190.072 123.31V114.611L191.429 116.108H184.787V110.964H195.685V123.31H190.072ZM206.861 96.9799H223.137V101.984H206.861V96.9799ZM207.329 111.01H225.803V116.108H201.249V83.3699H225.148V88.4679H207.329V111.01ZM255.591 83.3699H261.671V116.108H255.591V83.3699ZM238.66 116.108H232.58V83.3699H238.66V116.108ZM256.058 102.078H238.146V96.8861H256.058V102.078ZM277.729 116.108V87.0179L279.179 88.5148H266.926V83.3699H294.612V88.5148H282.359L283.762 87.0179V116.108H277.729ZM299.856 116.108V83.3699H313.325C316.225 83.3699 318.704 83.8378 320.761 84.773C322.851 85.7087 324.456 87.0494 325.578 88.795C326.701 90.5412 327.262 92.6146 327.262 95.0157C327.262 97.4163 326.701 99.4897 325.578 101.236C324.456 102.982 322.851 104.322 320.761 105.258C318.704 106.193 316.225 106.661 313.325 106.661H303.223L305.936 103.808V116.108H299.856ZM305.936 104.463L303.223 101.516H313.045C315.726 101.516 317.737 100.955 319.078 99.8328C320.45 98.6792 321.136 97.0731 321.136 95.0157C321.136 92.9263 320.45 91.3208 319.078 90.1986C317.737 89.0759 315.726 88.5148 313.045 88.5148H303.223L305.936 85.5217V104.463Z" fill="#393939"/>
</svg>
