<svg width="288" height="60" viewBox="0 0 288 60" fill="none" xmlns="http://www.w3.org/2000/svg">
<path d="M24.9046 18.8793C24.9046 19.4397 24.8011 20.6121 24.9046 21.3362C22.4477 19.2672 16.4994 17.3276 16.3701 17.5862C16.2408 17.8448 17.4046 21.9828 19.0856 25.7328C18.5684 25.6897 17.327 25.6035 16.4994 25.6035C14.8615 22.7155 11.7149 15.1293 13.1374 13.9655C14.3011 13.319 21.0253 15.6466 24.9046 18.8793Z" fill="#5E8A3B"/>
<path fill-rule="evenodd" clip-rule="evenodd" d="M6.80096 44.8707C7.18889 42.931 17.4044 29.0948 29.1717 33.3621C19.9906 23.9224 6.15459 30.1293 6.02528 30.7759C6.01162 30.8442 6.04992 30.9312 6.13392 31.0345C7.18889 31.9397 10.8315 33.9413 14.301 35.5603C13.9561 35.7328 13.1372 36.2069 12.232 37.2414C5.11993 34.2672 -0.181626 30.9052 0.335627 29.8707C3.30958 27.5431 18.5682 22.8879 27.8786 30.3879C23.8699 23.0172 25.163 10.0862 30.7234 0.775862C31.1302 0.094592 31.6286 0 31.8873 0V5.94828C28.913 10.9914 23.6889 21.9828 30.7234 32.3276C30.982 30.9052 30.206 27.1552 28.1372 24.569C28.0077 23.6638 27.7492 23.1466 27.7492 21.2069C28.9082 22.4713 30.2061 24.6983 31.2406 27.6724C31.6036 28.7159 31.6286 29.6121 31.8873 29.6121V36.0776C31.7579 36.0776 31.4173 36.4673 31.3699 36.5948C26.3268 50.1724 6.49062 46.4224 6.80096 44.8707ZM11.1975 43.0603C17.7923 33.75 24.1285 32.9741 28.913 34.7845C26.0165 37.1638 21.1544 37.1121 18.5682 36.7241C17.8441 37.2414 16.8873 38.1466 16.4994 38.5345C23.3272 39.6724 28.1374 37.6293 29.9475 36.0776C26.3268 46.2931 11.1975 43.9655 11.1975 43.0603Z" fill="#5E8A3B"/>
<path d="M18.5682 28.9655C19.6027 29.0948 20.8958 29.3535 21.6717 29.4828C22.2751 30.1293 23.8699 31.5517 25.0337 32.069C24.2579 31.9397 23.0941 31.8103 21.6717 32.1983C20.7234 31.3553 18.7751 29.5285 18.5682 28.9655Z" fill="#5E8A3B"/>
<path d="M38.8699 18.8793C38.8699 19.4397 38.9734 20.6121 38.8699 21.3362C41.3268 19.2672 47.2751 17.3276 47.4044 17.5862C47.5337 17.8448 46.3699 21.9828 44.6889 25.7328C45.2061 25.6897 46.4475 25.6035 47.2751 25.6035C48.913 22.7155 52.0596 15.1293 50.6372 13.9655C49.4734 13.319 42.7492 15.6466 38.8699 18.8793Z" fill="#5E8A3B"/>
<path fill-rule="evenodd" clip-rule="evenodd" d="M56.9736 44.8707C56.5856 42.931 46.3701 29.0948 34.6029 33.3621C43.7839 23.9224 57.6199 30.1293 57.7492 30.7759C57.7629 30.8442 57.7246 30.9312 57.6406 31.0345C56.5856 31.9397 52.943 33.9413 49.4736 35.5603C49.8184 35.7328 50.6374 36.2069 51.5426 37.2414C58.6546 34.2672 63.9562 30.9052 63.4389 29.8707C60.465 27.5431 45.2063 22.8879 35.896 30.3879C39.9046 23.0172 38.6115 10.0862 33.0512 0.775862C32.6443 0.094592 32.1461 0 31.8873 0V5.94828C34.8616 10.9914 40.0856 21.9828 33.0512 32.3276C32.7925 30.9052 33.5686 27.1552 35.6374 24.569C35.7669 23.6638 36.0253 23.1466 36.0253 21.2069C34.8664 22.4713 33.5684 24.6983 32.5339 27.6724C32.171 28.7159 32.1461 29.6121 31.8873 29.6121V36.0776C32.0168 36.0776 32.3572 36.4673 32.4046 36.5948C37.4477 50.1724 57.2839 46.4224 56.9736 44.8707ZM52.577 43.0603C45.9822 33.75 39.646 32.9741 34.8615 34.7845C37.7581 37.1638 42.6201 37.1121 45.2063 36.7241C45.9305 37.2414 46.8872 38.1466 47.2751 38.5345C40.4474 39.6724 35.6372 37.6293 33.827 36.0776C37.4477 46.2931 52.577 43.9655 52.577 43.0603Z" fill="#5E8A3B"/>
<path d="M45.2063 28.9655C44.1718 29.0948 42.8787 29.3535 42.1029 29.4828C41.4994 30.1293 39.9046 31.5517 38.7408 32.069C39.5167 31.9397 40.6805 31.8103 42.1029 32.1983C43.0512 31.3553 44.9994 29.5285 45.2063 28.9655Z" fill="#5E8A3B"/>
<path d="M3.82682 55.3448C12.6199 48.2328 31.3699 39.9569 62.0165 54.569L56.7148 57.5431C43.3958 52.1121 30.7234 42.5431 3.82682 55.3448Z" fill="#5E8A3B"/>
<path d="M4.60269 57.8017C15.982 52.3707 41.1975 47.5191 44.6889 58.1897C40.5079 54.6983 27.6458 50.1724 9.64579 60L4.60269 57.8017Z" fill="#5E8A3B"/>
<path d="M83.112 37.6192C81.9428 37.6192 80.8539 37.4292 79.8455 37.0492C78.8516 36.6546 77.982 36.1065 77.2367 35.405C76.5059 34.6888 75.9359 33.8484 75.5267 32.8838C75.1175 31.9192 74.9129 30.8669 74.9129 29.727C74.9129 28.587 75.1175 27.5347 75.5267 26.5701C75.9359 25.6055 76.5132 24.7724 77.2586 24.0709C78.004 23.3548 78.8736 22.8067 79.8674 22.4267C80.8612 22.0321 81.95 21.8348 83.1339 21.8348C84.3908 21.8348 85.5381 22.054 86.5758 22.4925C87.6134 22.9163 88.4904 23.5521 89.2065 24.3997L87.365 26.1316C86.8096 25.5324 86.1885 25.0867 85.5016 24.7943C84.8146 24.4874 84.0693 24.334 83.2654 24.334C82.4616 24.334 81.7235 24.4655 81.0512 24.7286C80.3935 24.9916 79.8162 25.3643 79.3193 25.8466C78.837 26.3289 78.457 26.8989 78.1794 27.5566C77.9163 28.2143 77.7847 28.9378 77.7847 29.727C77.7847 30.5162 77.9163 31.2396 78.1794 31.8973C78.457 32.555 78.837 33.125 79.3193 33.6073C79.8162 34.0896 80.3935 34.4623 81.0512 34.7253C81.7235 34.9884 82.4616 35.1199 83.2654 35.1199C84.0693 35.1199 84.8146 34.9738 85.5016 34.6815C86.1885 34.3746 86.8096 33.9142 87.365 33.3004L89.2065 35.0542C88.4904 35.8873 87.6134 36.523 86.5758 36.9615C85.5381 37.3999 84.3835 37.6192 83.112 37.6192ZM89.5804 37.3999L96.4861 22.054H99.2922L106.22 37.3999H103.238L97.2972 23.5667H98.4372L92.518 37.3999H89.5804ZM92.7592 33.8484L93.5265 31.6123H101.813L102.581 33.8484H92.7592ZM118.789 36.0846V24.4655H112.782L112.672 27.1839C112.628 28.207 112.563 29.1789 112.475 30.0997C112.402 31.0058 112.278 31.8315 112.102 32.5769C111.941 33.3223 111.715 33.9434 111.423 34.4403C111.13 34.9373 110.772 35.2661 110.348 35.4269L107.279 34.9884C107.834 35.0176 108.288 34.8277 108.638 34.4184C109.004 34.0092 109.289 33.4392 109.493 32.7085C109.698 31.9777 109.851 31.1227 109.954 30.1435C110.056 29.1497 110.129 28.0755 110.173 26.9208L110.348 22.054H121.595V36.0846H118.789ZM106.753 40.6664L106.775 34.9884H123.809V40.6664H121.178V37.3999H109.406V40.6664H106.753ZM133.617 37.6192C132.419 37.6192 131.315 37.4219 130.307 37.0272C129.298 36.6326 128.421 36.0846 127.676 35.383C126.931 34.6669 126.353 33.8338 125.944 32.8838C125.535 31.9192 125.33 30.8669 125.33 29.727C125.33 28.587 125.535 27.542 125.944 26.592C126.353 25.6274 126.931 24.7943 127.676 24.0928C128.421 23.3767 129.298 22.8213 130.307 22.4267C131.315 22.0321 132.411 21.8348 133.595 21.8348C134.794 21.8348 135.89 22.0321 136.884 22.4267C137.892 22.8213 138.769 23.3767 139.514 24.0928C140.26 24.7943 140.837 25.6274 141.246 26.592C141.656 27.542 141.86 28.587 141.86 29.727C141.86 30.8669 141.656 31.9192 141.246 32.8838C140.837 33.8484 140.26 34.6815 139.514 35.383C138.769 36.0846 137.892 36.6326 136.884 37.0272C135.89 37.4219 134.801 37.6192 133.617 37.6192ZM133.595 35.1199C134.37 35.1199 135.086 34.9884 135.744 34.7253C136.401 34.4623 136.971 34.0896 137.454 33.6073C137.936 33.1104 138.309 32.5404 138.572 31.8973C138.85 31.2396 138.988 30.5162 138.988 29.727C138.988 28.9378 138.85 28.2216 138.572 27.5785C138.309 26.9208 137.936 26.3508 137.454 25.8685C136.971 25.3716 136.401 24.9916 135.744 24.7286C135.086 24.4655 134.37 24.334 133.595 24.334C132.821 24.334 132.104 24.4655 131.447 24.7286C130.804 24.9916 130.234 25.3716 129.737 25.8685C129.255 26.3508 128.874 26.9208 128.597 27.5785C128.334 28.2216 128.202 28.9378 128.202 29.727C128.202 30.5016 128.334 31.2177 128.597 31.8754C128.874 32.5331 129.255 33.1104 129.737 33.6073C130.219 34.0896 130.789 34.4623 131.447 34.7253C132.104 34.9884 132.821 35.1199 133.595 35.1199ZM145.033 37.3999V22.054H151.895C153.619 22.054 154.964 22.3974 155.929 23.0844C156.893 23.7567 157.376 24.7286 157.376 26.0001C157.376 27.257 156.915 28.2289 155.994 28.9158C155.074 29.5881 153.861 29.9243 152.355 29.9243L152.75 29.1351C154.46 29.1351 155.782 29.4785 156.718 30.1654C157.653 30.8523 158.121 31.8461 158.121 33.1469C158.121 34.4769 157.631 35.5219 156.652 36.2819C155.673 37.0272 154.226 37.3999 152.311 37.3999H145.033ZM147.839 35.2076H152.224C153.217 35.2076 153.97 35.025 154.482 34.6596C154.993 34.2796 155.249 33.7023 155.249 32.9277C155.249 32.1531 154.993 31.5904 154.482 31.2396C153.97 30.8743 153.217 30.6916 152.224 30.6916H147.839V35.2076ZM147.839 28.6089H151.654C152.575 28.6089 153.276 28.4262 153.758 28.0608C154.241 27.6808 154.482 27.1401 154.482 26.4385C154.482 25.7078 154.241 25.1597 153.758 24.7943C153.276 24.429 152.575 24.2463 151.654 24.2463H147.839V28.6089ZM168.448 27.2497C170.275 27.2497 171.686 27.6589 172.68 28.4774C173.674 29.2958 174.17 30.5235 174.17 32.1604C174.17 33.885 173.622 35.193 172.526 36.0846C171.445 36.9615 169.932 37.3999 167.988 37.3999H161.389V22.054H164.196V27.2497H168.448ZM167.857 35.2076C168.953 35.2076 169.8 34.9519 170.4 34.4403C171.013 33.9288 171.32 33.1835 171.32 32.2042C171.32 31.2396 171.021 30.5381 170.422 30.0997C169.822 29.6466 168.967 29.4201 167.857 29.4201H164.196V35.2076H167.857ZM176.385 37.3999V22.054H179.191V37.3999H176.385ZM183.526 37.3999V22.054H186.332V32.9496L194.575 22.054H197.228V37.3999H194.422V26.5262L186.179 37.3999H183.526ZM190.344 21.0236C189.029 21.0236 188.035 20.7459 187.363 20.1906C186.705 19.6352 186.369 18.8533 186.354 17.8448H188.349C188.364 18.3856 188.539 18.8021 188.875 19.0944C189.226 19.3867 189.716 19.5329 190.344 19.5329C190.973 19.5329 191.462 19.3867 191.813 19.0944C192.178 18.8021 192.368 18.3856 192.383 17.8448H194.356C194.341 18.8533 193.998 19.6352 193.326 20.1906C192.653 20.7459 191.66 21.0236 190.344 21.0236Z" fill="#393939"/>
<path d="M209.525 37.4V22.054H212.331V34.9886H220.07V22.054H222.898V34.9886H225.178V40.7761H222.547V37.4H220.07H209.525Z" fill="#393939"/>
<path d="M230.636 28.4336H238.046V30.7793H230.636V35.0104H239.296V37.4H227.786V22.054H238.989V24.4437H230.636V28.4336Z" fill="#393939"/>
<path d="M253.259 22.054H256.109V37.4H253.259V30.8233H245.323V37.4H242.473V22.054H245.323V28.3897H253.259V22.054Z" fill="#393939"/>
<path d="M263.636 37.4V24.4656H258.572V22.054H271.55V24.4656H266.464V37.4H263.636Z" fill="#393939"/>
<path fill-rule="evenodd" clip-rule="evenodd" d="M274.008 22.054V37.4H276.858V32.9717H280.322C281.681 32.9717 282.843 32.7524 283.808 32.314C284.787 31.8754 285.54 31.2469 286.066 30.4286C286.592 29.6101 286.855 28.6382 286.855 27.513C286.855 26.3874 286.592 25.4155 286.066 24.597C285.54 23.7787 284.787 23.1503 283.808 22.7117C282.843 22.2733 281.681 22.054 280.322 22.054H274.008ZM280.19 30.56H276.858V24.4656H280.19C281.447 24.4656 282.39 24.7286 283.018 25.2549C283.661 25.781 283.983 26.5336 283.983 27.513C283.983 28.4774 283.661 29.2302 283.018 29.771C282.39 30.297 281.447 30.56 280.19 30.56Z" fill="#393939"/>
</svg>
