<svg width="24" height="25" viewBox="0 0 24 25" fill="none" xmlns="http://www.w3.org/2000/svg">
<path fill-rule="evenodd" clip-rule="evenodd" d="M1 7.5V18.5C1 20 1.5 20.5 3 20.5H20V18H3.5V7.5H1ZM5 4.5V16.5H23V4.5H5ZM8.4125 13.0875C8.80417 13.4792 9 13.95 9 14.5H7V12.5C7.55 12.5 8.02083 12.6958 8.4125 13.0875ZM21 14.5H19C19 13.95 19.1958 13.4792 19.5875 13.0875C19.9792 12.6958 20.45 12.5 21 12.5V14.5ZM16.125 12.625C15.5417 13.2083 14.8333 13.5 14 13.5C13.1667 13.5 12.4583 13.2083 11.875 12.625C11.2917 12.0417 11 11.3333 11 10.5C11 9.66667 11.2917 8.95833 11.875 8.375C12.4583 7.79167 13.1667 7.5 14 7.5C14.8333 7.5 15.5417 7.79167 16.125 8.375C16.7083 8.95833 17 9.66667 17 10.5C17 11.3333 16.7083 12.0417 16.125 12.625ZM8.4125 7.9125C8.02083 8.30417 7.55 8.5 7 8.5V6.5H9C9 7.05 8.80417 7.52083 8.4125 7.9125ZM21 6.5V8.5C20.45 8.5 19.9792 8.30417 19.5875 7.9125C19.1958 7.52083 19 7.05 19 6.5H21Z" fill="#8EAD75"/>
</svg>
