<svg width="24" height="24" viewBox="0 0 24 24" fill="none" xmlns="http://www.w3.org/2000/svg">
<g clip-path="url(#clip0_474_695)">
<path d="M14.2502 14.3266L20.7556 11.7103C20.9677 11.616 21.1268 11.4866 21.2329 11.3221C21.3389 11.1576 21.392 10.9806 21.392 10.7911C21.392 10.6016 21.3359 10.422 21.2237 10.2523C21.1115 10.0826 20.9496 9.94987 20.7379 9.85417L5.04012 3.80841C4.83977 3.72591 4.64225 3.7113 4.44756 3.76457C4.25287 3.81784 4.09095 3.90905 3.96178 4.03822C3.83262 4.16738 3.7414 4.32931 3.68813 4.524C3.63486 4.71869 3.64948 4.91621 3.73197 5.11656L9.77773 20.8143C9.87202 21.0265 10.0047 21.1884 10.1758 21.3001C10.347 21.4118 10.5266 21.4679 10.7147 21.4684C10.9027 21.4689 11.0798 21.4158 11.2457 21.3093C11.4116 21.2028 11.541 21.0437 11.6339 20.832L14.2502 14.3266ZM17.6443 10.7911L12.6946 12.771L10.7147 17.7207L6.4013 6.47774L17.6443 10.7911Z" fill="#5E8A3B"/>
<path d="M17.6443 10.7911L12.6946 12.771L10.7147 17.7207L6.4013 6.47774L17.6443 10.7911Z" fill="#5E8A3B"/>
</g>
<defs>
<clipPath id="clip0_474_695">
<rect width="24" height="24" fill="white"/>
</clipPath>
</defs>
</svg>
