<svg width="24" height="24" viewBox="0 0 24 24" fill="none" xmlns="http://www.w3.org/2000/svg">
<path d="M7.0909 3C6.80163 3 6.52421 3.11848 6.31963 3.32938C6.11505 3.54036 6.00002 3.82639 6.00002 4.12476L6 19.8748C6 20.1731 6.11493 20.4593 6.31952 20.6703C6.5241 20.8812 6.80158 20.9998 7.0909 20.9998C7.38023 20.9998 7.6577 20.8812 7.86228 20.6703C8.06687 20.4593 8.1818 20.1731 8.1818 19.8748L8.18182 4.12476C8.18182 3.82639 8.06675 3.54036 7.86217 3.32938C7.65759 3.11848 7.38017 3 7.0909 3Z" fill="#5E8A3B"/>
<path d="M15.8182 4.12524L15.8182 19.8752C15.8182 20.1736 15.9332 20.4596 16.1378 20.6706C16.3424 20.8815 16.6198 21 16.9091 21C17.1983 21 17.4758 20.8815 17.6803 20.6706C17.8849 20.4596 18 20.1736 18 19.8752L18 4.12524C18 3.82687 17.885 3.54072 17.6805 3.32975C17.4759 3.11877 17.1984 3.00024 16.9091 3.00024C16.6198 3.00024 16.3423 3.11877 16.1377 3.32975C15.9331 3.54072 15.8182 3.82687 15.8182 4.12524Z" fill="#5E8A3B"/>
</svg>
