<svg width="24" height="24" viewBox="0 0 24 24" fill="none" xmlns="http://www.w3.org/2000/svg">
<path d="M19 12.1503C19 12.4155 18.8947 12.6698 18.7072 12.8573L10.5086 21.0559C10.32 21.2381 10.0674 21.3389 9.80525 21.3366C9.54305 21.3343 9.29224 21.2291 9.10683 21.0437C8.92142 20.8583 8.81625 20.6075 8.81397 20.3453L8.84989 4.00869C8.84874 3.87591 8.87404 3.74423 8.92432 3.62133C8.9746 3.49844 9.04886 3.38679 9.14275 3.29289C9.23664 3.199 9.34829 3.12475 9.47119 3.07447C9.59409 3.02419 9.72577 2.99888 9.85854 3.00004C9.99132 3.00119 10.1225 3.02878 10.2445 3.08119C10.3666 3.1336 10.4769 3.20978 10.5691 3.30529L18.7072 11.4433C18.8947 11.6309 19 11.8852 19 12.1503Z" fill="#5E8A3B"/>
</svg>
