<svg width="24" height="24" viewBox="0 0 24 24" fill="none" xmlns="http://www.w3.org/2000/svg">
<path d="M6.29551 9.29531C6.20187 9.38812 6.12755 9.49854 6.07683 9.62019C6.02611 9.74185 6 9.87234 6 10.0041C6 10.1359 6.02611 10.2664 6.07683 10.3881C6.12755 10.5097 6.20187 10.6202 6.29551 10.713L11.2907 15.7047C11.3836 15.7983 11.4941 15.8725 11.6158 15.9232C11.7375 15.9739 11.8681 16 12 16C12.1319 16 12.2625 15.9739 12.3842 15.9232C12.5059 15.8725 12.6164 15.7983 12.7093 15.7047L17.7045 10.713C17.7981 10.6202 17.8724 10.5097 17.9232 10.3881C17.9739 10.2664 18 10.1359 18 10.0041C18 9.87234 17.9739 9.74185 17.9232 9.62019C17.8724 9.49854 17.7981 9.38812 17.7045 9.29531C17.6116 9.20174 17.5011 9.12746 17.3794 9.07678C17.2576 9.02609 17.1271 9 16.9952 9C16.8633 9 16.7327 9.02609 16.611 9.07678C16.4892 9.12746 16.3787 9.20174 16.2859 9.29531L12 13.5882L7.71414 9.29531C7.62127 9.20174 7.51077 9.12746 7.38903 9.07678C7.26729 9.0261 7.13671 9 7.00483 9C6.87294 9 6.74236 9.0261 6.62062 9.07678C6.49888 9.12746 6.38839 9.20174 6.29551 9.29531Z" fill="#6A6A6A"/>
</svg>
