<svg xmlns="http://www.w3.org/2000/svg">


    <symbol id="error" viewBox="0 0 24 24" fill="none">
        <path d="M12 21.7499C11.5875 21.7499 11.2345 21.6032 10.941 21.3097C10.6475 21.0162 10.5005 20.663 10.5 20.25C10.4995 19.837 10.6465 19.484 10.941 19.191C11.2355 18.898 11.5885 18.751 12 18.75C12.4115 18.749 12.7647 18.896 13.0597 19.191C13.3547 19.486 13.5015 19.839 13.5 20.25C13.4985 20.661 13.3517 21.0142 13.0597 21.3097C12.7677 21.6052 12.4145 21.7519 12 21.7499Z" fill="white" />
        <path d="M11.9545 2.25C11.5688 2.25 11.1989 2.40797 10.9262 2.68918C10.6534 2.97048 10.5 3.35185 10.5 3.74968L10.5 14.5C10.5 14.8978 10.6532 15.2794 10.926 15.5607C11.1988 15.842 11.5688 16 11.9545 16C12.3403 16 12.7103 15.842 12.983 15.5607C13.2558 15.2794 13.4091 14.8978 13.4091 14.5L13.4091 3.74968C13.4091 3.35185 13.2557 2.97048 12.9829 2.68918C12.7101 2.40797 12.3402 2.25 11.9545 2.25Z" fill="white" />
    </symbol>

    <symbol id="success" viewBox="0 0 24 24" fill="none">
        <path d="M9.79597 15.3808L18.017 6.32071C18.211 6.1069 18.4373 6 18.696 6C18.9547 6 19.181 6.1069 19.375 6.32071C19.569 6.53452 19.666 6.7886 19.666 7.08294C19.666 7.37728 19.569 7.631 19.375 7.8441L10.475 17.6793C10.281 17.8931 10.0546 18 9.79597 18C9.5373 18 9.31096 17.8931 9.11695 17.6793L4.94583 13.0824C4.75183 12.8686 4.6587 12.6149 4.66646 12.3212C4.67422 12.0276 4.77543 11.7735 4.97008 11.559C5.16473 11.3445 5.39528 11.2376 5.66171 11.2383C5.92815 11.239 6.15837 11.3459 6.35237 11.559L9.79597 15.3808Z" fill="white" />
    </symbol>


    <symbol id="logo" viewBox="0 0 288 60" fill="none">
        <path
            d="M24.9046 18.8793C24.9046 19.4397 24.8011 20.6121 24.9046 21.3362C22.4477 19.2672 16.4994 17.3276 16.3701 17.5862C16.2408 17.8448 17.4046 21.9828 19.0856 25.7328C18.5684 25.6897 17.327 25.6035 16.4994 25.6035C14.8615 22.7155 11.7149 15.1293 13.1374 13.9655C14.3011 13.319 21.0253 15.6466 24.9046 18.8793Z"
            fill="#5E8A3B" />
        <path fill-rule="evenodd" clip-rule="evenodd"
            d="M6.80096 44.8707C7.18889 42.931 17.4044 29.0948 29.1717 33.3621C19.9906 23.9224 6.15459 30.1293 6.02528 30.7759C6.01162 30.8442 6.04992 30.9312 6.13392 31.0345C7.18889 31.9397 10.8315 33.9413 14.301 35.5603C13.9561 35.7328 13.1372 36.2069 12.232 37.2414C5.11993 34.2672 -0.181626 30.9052 0.335627 29.8707C3.30958 27.5431 18.5682 22.8879 27.8786 30.3879C23.8699 23.0172 25.163 10.0862 30.7234 0.775862C31.1302 0.094592 31.6286 0 31.8873 0V5.94828C28.913 10.9914 23.6889 21.9828 30.7234 32.3276C30.982 30.9052 30.206 27.1552 28.1372 24.569C28.0077 23.6638 27.7492 23.1466 27.7492 21.2069C28.9082 22.4713 30.2061 24.6983 31.2406 27.6724C31.6036 28.7159 31.6286 29.6121 31.8873 29.6121V36.0776C31.7579 36.0776 31.4173 36.4673 31.3699 36.5948C26.3268 50.1724 6.49062 46.4224 6.80096 44.8707ZM11.1975 43.0603C17.7923 33.75 24.1285 32.9741 28.913 34.7845C26.0165 37.1638 21.1544 37.1121 18.5682 36.7241C17.8441 37.2414 16.8873 38.1466 16.4994 38.5345C23.3272 39.6724 28.1374 37.6293 29.9475 36.0776C26.3268 46.2931 11.1975 43.9655 11.1975 43.0603Z"
            fill="#5E8A3B" />
        <path
            d="M18.5682 28.9655C19.6027 29.0948 20.8958 29.3535 21.6717 29.4828C22.2751 30.1293 23.8699 31.5517 25.0337 32.069C24.2579 31.9397 23.0941 31.8103 21.6717 32.1983C20.7234 31.3553 18.7751 29.5285 18.5682 28.9655Z"
            fill="#5E8A3B" />
        <path
            d="M38.8699 18.8793C38.8699 19.4397 38.9734 20.6121 38.8699 21.3362C41.3268 19.2672 47.2751 17.3276 47.4044 17.5862C47.5337 17.8448 46.3699 21.9828 44.6889 25.7328C45.2061 25.6897 46.4475 25.6035 47.2751 25.6035C48.913 22.7155 52.0596 15.1293 50.6372 13.9655C49.4734 13.319 42.7492 15.6466 38.8699 18.8793Z"
            fill="#5E8A3B" />
        <path fill-rule="evenodd" clip-rule="evenodd"
            d="M56.9736 44.8707C56.5856 42.931 46.3701 29.0948 34.6029 33.3621C43.7839 23.9224 57.6199 30.1293 57.7492 30.7759C57.7629 30.8442 57.7246 30.9312 57.6406 31.0345C56.5856 31.9397 52.943 33.9413 49.4736 35.5603C49.8184 35.7328 50.6374 36.2069 51.5426 37.2414C58.6546 34.2672 63.9562 30.9052 63.4389 29.8707C60.465 27.5431 45.2063 22.8879 35.896 30.3879C39.9046 23.0172 38.6115 10.0862 33.0512 0.775862C32.6443 0.094592 32.1461 0 31.8873 0V5.94828C34.8616 10.9914 40.0856 21.9828 33.0512 32.3276C32.7925 30.9052 33.5686 27.1552 35.6374 24.569C35.7669 23.6638 36.0253 23.1466 36.0253 21.2069C34.8664 22.4713 33.5684 24.6983 32.5339 27.6724C32.171 28.7159 32.1461 29.6121 31.8873 29.6121V36.0776C32.0168 36.0776 32.3572 36.4673 32.4046 36.5948C37.4477 50.1724 57.2839 46.4224 56.9736 44.8707ZM52.577 43.0603C45.9822 33.75 39.646 32.9741 34.8615 34.7845C37.7581 37.1638 42.6201 37.1121 45.2063 36.7241C45.9305 37.2414 46.8872 38.1466 47.2751 38.5345C40.4474 39.6724 35.6372 37.6293 33.827 36.0776C37.4477 46.2931 52.577 43.9655 52.577 43.0603Z"
            fill="#5E8A3B" />
        <path
            d="M45.2063 28.9655C44.1718 29.0948 42.8787 29.3535 42.1029 29.4828C41.4994 30.1293 39.9046 31.5517 38.7408 32.069C39.5167 31.9397 40.6805 31.8103 42.1029 32.1983C43.0512 31.3553 44.9994 29.5285 45.2063 28.9655Z"
            fill="#5E8A3B" />
        <path
            d="M3.82682 55.3448C12.6199 48.2328 31.3699 39.9569 62.0165 54.569L56.7148 57.5431C43.3958 52.1121 30.7234 42.5431 3.82682 55.3448Z"
            fill="#5E8A3B" />
        <path
            d="M4.60269 57.8017C15.982 52.3707 41.1975 47.5191 44.6889 58.1897C40.5079 54.6983 27.6458 50.1724 9.64579 60L4.60269 57.8017Z"
            fill="#5E8A3B" />
        <path
            d="M83.112 37.6192C81.9428 37.6192 80.8539 37.4292 79.8455 37.0492C78.8516 36.6546 77.982 36.1065 77.2367 35.405C76.5059 34.6888 75.9359 33.8484 75.5267 32.8838C75.1175 31.9192 74.9129 30.8669 74.9129 29.727C74.9129 28.587 75.1175 27.5347 75.5267 26.5701C75.9359 25.6055 76.5132 24.7724 77.2586 24.0709C78.004 23.3548 78.8736 22.8067 79.8674 22.4267C80.8612 22.0321 81.95 21.8348 83.1339 21.8348C84.3908 21.8348 85.5381 22.054 86.5758 22.4925C87.6134 22.9163 88.4904 23.5521 89.2065 24.3997L87.365 26.1316C86.8096 25.5324 86.1885 25.0867 85.5016 24.7943C84.8146 24.4874 84.0693 24.334 83.2654 24.334C82.4616 24.334 81.7235 24.4655 81.0512 24.7286C80.3935 24.9916 79.8162 25.3643 79.3193 25.8466C78.837 26.3289 78.457 26.8989 78.1794 27.5566C77.9163 28.2143 77.7847 28.9378 77.7847 29.727C77.7847 30.5162 77.9163 31.2396 78.1794 31.8973C78.457 32.555 78.837 33.125 79.3193 33.6073C79.8162 34.0896 80.3935 34.4623 81.0512 34.7253C81.7235 34.9884 82.4616 35.1199 83.2654 35.1199C84.0693 35.1199 84.8146 34.9738 85.5016 34.6815C86.1885 34.3746 86.8096 33.9142 87.365 33.3004L89.2065 35.0542C88.4904 35.8873 87.6134 36.523 86.5758 36.9615C85.5381 37.3999 84.3835 37.6192 83.112 37.6192ZM89.5804 37.3999L96.4861 22.054H99.2922L106.22 37.3999H103.238L97.2972 23.5667H98.4372L92.518 37.3999H89.5804ZM92.7592 33.8484L93.5265 31.6123H101.813L102.581 33.8484H92.7592ZM118.789 36.0846V24.4655H112.782L112.672 27.1839C112.628 28.207 112.563 29.1789 112.475 30.0997C112.402 31.0058 112.278 31.8315 112.102 32.5769C111.941 33.3223 111.715 33.9434 111.423 34.4403C111.13 34.9373 110.772 35.2661 110.348 35.4269L107.279 34.9884C107.834 35.0176 108.288 34.8277 108.638 34.4184C109.004 34.0092 109.289 33.4392 109.493 32.7085C109.698 31.9777 109.851 31.1227 109.954 30.1435C110.056 29.1497 110.129 28.0755 110.173 26.9208L110.348 22.054H121.595V36.0846H118.789ZM106.753 40.6664L106.775 34.9884H123.809V40.6664H121.178V37.3999H109.406V40.6664H106.753ZM133.617 37.6192C132.419 37.6192 131.315 37.4219 130.307 37.0272C129.298 36.6326 128.421 36.0846 127.676 35.383C126.931 34.6669 126.353 33.8338 125.944 32.8838C125.535 31.9192 125.33 30.8669 125.33 29.727C125.33 28.587 125.535 27.542 125.944 26.592C126.353 25.6274 126.931 24.7943 127.676 24.0928C128.421 23.3767 129.298 22.8213 130.307 22.4267C131.315 22.0321 132.411 21.8348 133.595 21.8348C134.794 21.8348 135.89 22.0321 136.884 22.4267C137.892 22.8213 138.769 23.3767 139.514 24.0928C140.26 24.7943 140.837 25.6274 141.246 26.592C141.656 27.542 141.86 28.587 141.86 29.727C141.86 30.8669 141.656 31.9192 141.246 32.8838C140.837 33.8484 140.26 34.6815 139.514 35.383C138.769 36.0846 137.892 36.6326 136.884 37.0272C135.89 37.4219 134.801 37.6192 133.617 37.6192ZM133.595 35.1199C134.37 35.1199 135.086 34.9884 135.744 34.7253C136.401 34.4623 136.971 34.0896 137.454 33.6073C137.936 33.1104 138.309 32.5404 138.572 31.8973C138.85 31.2396 138.988 30.5162 138.988 29.727C138.988 28.9378 138.85 28.2216 138.572 27.5785C138.309 26.9208 137.936 26.3508 137.454 25.8685C136.971 25.3716 136.401 24.9916 135.744 24.7286C135.086 24.4655 134.37 24.334 133.595 24.334C132.821 24.334 132.104 24.4655 131.447 24.7286C130.804 24.9916 130.234 25.3716 129.737 25.8685C129.255 26.3508 128.874 26.9208 128.597 27.5785C128.334 28.2216 128.202 28.9378 128.202 29.727C128.202 30.5016 128.334 31.2177 128.597 31.8754C128.874 32.5331 129.255 33.1104 129.737 33.6073C130.219 34.0896 130.789 34.4623 131.447 34.7253C132.104 34.9884 132.821 35.1199 133.595 35.1199ZM145.033 37.3999V22.054H151.895C153.619 22.054 154.964 22.3974 155.929 23.0844C156.893 23.7567 157.376 24.7286 157.376 26.0001C157.376 27.257 156.915 28.2289 155.994 28.9158C155.074 29.5881 153.861 29.9243 152.355 29.9243L152.75 29.1351C154.46 29.1351 155.782 29.4785 156.718 30.1654C157.653 30.8523 158.121 31.8461 158.121 33.1469C158.121 34.4769 157.631 35.5219 156.652 36.2819C155.673 37.0272 154.226 37.3999 152.311 37.3999H145.033ZM147.839 35.2076H152.224C153.217 35.2076 153.97 35.025 154.482 34.6596C154.993 34.2796 155.249 33.7023 155.249 32.9277C155.249 32.1531 154.993 31.5904 154.482 31.2396C153.97 30.8743 153.217 30.6916 152.224 30.6916H147.839V35.2076ZM147.839 28.6089H151.654C152.575 28.6089 153.276 28.4262 153.758 28.0608C154.241 27.6808 154.482 27.1401 154.482 26.4385C154.482 25.7078 154.241 25.1597 153.758 24.7943C153.276 24.429 152.575 24.2463 151.654 24.2463H147.839V28.6089ZM168.448 27.2497C170.275 27.2497 171.686 27.6589 172.68 28.4774C173.674 29.2958 174.17 30.5235 174.17 32.1604C174.17 33.885 173.622 35.193 172.526 36.0846C171.445 36.9615 169.932 37.3999 167.988 37.3999H161.389V22.054H164.196V27.2497H168.448ZM167.857 35.2076C168.953 35.2076 169.8 34.9519 170.4 34.4403C171.013 33.9288 171.32 33.1835 171.32 32.2042C171.32 31.2396 171.021 30.5381 170.422 30.0997C169.822 29.6466 168.967 29.4201 167.857 29.4201H164.196V35.2076H167.857ZM176.385 37.3999V22.054H179.191V37.3999H176.385ZM183.526 37.3999V22.054H186.332V32.9496L194.575 22.054H197.228V37.3999H194.422V26.5262L186.179 37.3999H183.526ZM190.344 21.0236C189.029 21.0236 188.035 20.7459 187.363 20.1906C186.705 19.6352 186.369 18.8533 186.354 17.8448H188.349C188.364 18.3856 188.539 18.8021 188.875 19.0944C189.226 19.3867 189.716 19.5329 190.344 19.5329C190.973 19.5329 191.462 19.3867 191.813 19.0944C192.178 18.8021 192.368 18.3856 192.383 17.8448H194.356C194.341 18.8533 193.998 19.6352 193.326 20.1906C192.653 20.7459 191.66 21.0236 190.344 21.0236Z"
            fill="#393939" />
        <path
            d="M209.525 37.4V22.054H212.331V34.9886H220.07V22.054H222.898V34.9886H225.178V40.7761H222.547V37.4H220.07H209.525Z"
            fill="#393939" />
        <path
            d="M230.636 28.4336H238.046V30.7793H230.636V35.0104H239.296V37.4H227.786V22.054H238.989V24.4437H230.636V28.4336Z"
            fill="#393939" />
        <path
            d="M253.259 22.054H256.109V37.4H253.259V30.8233H245.323V37.4H242.473V22.054H245.323V28.3897H253.259V22.054Z"
            fill="#393939" />
        <path d="M263.636 37.4V24.4656H258.572V22.054H271.55V24.4656H266.464V37.4H263.636Z" fill="#393939" />
        <path fill-rule="evenodd" clip-rule="evenodd"
            d="M274.008 22.054V37.4H276.858V32.9717H280.322C281.681 32.9717 282.843 32.7524 283.808 32.314C284.787 31.8754 285.54 31.2469 286.066 30.4286C286.592 29.6101 286.855 28.6382 286.855 27.513C286.855 26.3874 286.592 25.4155 286.066 24.597C285.54 23.7787 284.787 23.1503 283.808 22.7117C282.843 22.2733 281.681 22.054 280.322 22.054H274.008ZM280.19 30.56H276.858V24.4656H280.19C281.447 24.4656 282.39 24.7286 283.018 25.2549C283.661 25.781 283.983 26.5336 283.983 27.513C283.983 28.4774 283.661 29.2302 283.018 29.771C282.39 30.297 281.447 30.56 280.19 30.56Z"
            fill="#393939" />
    </symbol>

    <symbol id="inst" viewBox="0 0 24 24">
        <path
            d="M12 8.75C11.138 8.75 10.3114 9.09241 9.7019 9.7019C9.09241 10.3114 8.75 11.138 8.75 12C8.75 12.862 9.09241 13.6886 9.7019 14.2981C10.3114 14.9076 11.138 15.25 12 15.25C12.862 15.25 13.6886 14.9076 14.2981 14.2981C14.9076 13.6886 15.25 12.862 15.25 12C15.25 11.138 14.9076 10.3114 14.2981 9.7019C13.6886 9.09241 12.862 8.75 12 8.75Z" />
        <path fill-rule="evenodd" clip-rule="evenodd"
            d="M6.77061 3.082C10.2466 2.69693 13.7546 2.69693 17.2306 3.082C19.1296 3.294 20.6606 4.789 20.8836 6.695C21.2955 10.2197 21.2955 13.7803 20.8836 17.305C20.6606 19.211 19.1296 20.706 17.2316 20.919C13.7552 21.3041 10.247 21.3041 6.77061 20.919C4.87161 20.706 3.34061 19.211 3.11761 17.306C2.70559 13.781 2.70559 10.22 3.11761 6.695C3.34061 4.789 4.87161 3.294 6.77061 3.082ZM17.0006 6C16.7354 6 16.481 6.10536 16.2935 6.29289C16.106 6.48043 16.0006 6.73478 16.0006 7C16.0006 7.26522 16.106 7.51957 16.2935 7.70711C16.481 7.89464 16.7354 8 17.0006 8C17.2658 8 17.5202 7.89464 17.7077 7.70711C17.8953 7.51957 18.0006 7.26522 18.0006 7C18.0006 6.73478 17.8953 6.48043 17.7077 6.29289C17.5202 6.10536 17.2658 6 17.0006 6ZM7.25061 12C7.25061 10.7402 7.75105 9.53204 8.64185 8.64124C9.53265 7.75045 10.7408 7.25 12.0006 7.25C13.2604 7.25 14.4686 7.75045 15.3594 8.64124C16.2502 9.53204 16.7506 10.7402 16.7506 12C16.7506 13.2598 16.2502 14.468 15.3594 15.3588C14.4686 16.2496 13.2604 16.75 12.0006 16.75C10.7408 16.75 9.53265 16.2496 8.64185 15.3588C7.75105 14.468 7.25061 13.2598 7.25061 12Z" />
    </symbol>

    <symbol id="tg" viewBox="0 0 24 24">
        <path
            d="M19.9949 4.54103C19.7319 7.70314 18.5921 15.3883 18.0134 18.9306C17.7679 20.4316 17.2769 20.932 16.821 20.992C15.804 21.0921 15.0324 20.2315 14.0504 19.491C12.5073 18.3302 11.6305 17.6098 10.14 16.489C8.40398 15.1881 9.52626 14.4677 10.5258 13.3069C10.7888 13.0067 15.2779 8.34357 15.3656 7.92329C15.3778 7.85963 15.3761 7.79355 15.3609 7.73077C15.3456 7.66799 15.3171 7.61042 15.2779 7.56305C15.1727 7.46298 15.0324 7.50301 14.9096 7.52302C14.7518 7.56305 12.2969 9.42429 7.50967 13.1068C6.80825 13.6471 6.17698 13.9273 5.61584 13.9073C4.98456 13.8873 3.79215 13.507 2.89784 13.1668C1.7931 12.7665 0.933866 12.5464 1.00401 11.8459C1.03908 11.4857 1.47747 11.1254 2.30163 10.7452C7.422 8.20348 10.8239 6.52235 12.5248 5.72182C17.3997 3.40027 18.3992 3 19.0656 3C19.2058 3 19.539 3.04003 19.7494 3.24016C19.9248 3.40027 19.9774 3.62042 19.9949 3.78052C19.9774 3.9006 20.0125 4.26084 19.9949 4.54103Z" />
        <path
            d="M19.9949 4.54103C19.7319 7.70314 18.5921 15.3883 18.0134 18.9306C17.7679 20.4316 17.2769 20.932 16.821 20.992C15.804 21.0921 15.0324 20.2315 14.0504 19.491C12.5073 18.3302 11.6305 17.6098 10.14 16.489C8.40398 15.1881 9.52626 14.4677 10.5258 13.3069C10.7888 13.0067 15.2779 8.34357 15.3656 7.92329C15.3778 7.85963 15.3761 7.79355 15.3609 7.73077C15.3456 7.66799 15.3171 7.61042 15.2779 7.56305C15.1727 7.46298 15.0324 7.50301 14.9096 7.52302C14.7518 7.56305 12.2969 9.42429 7.50967 13.1068C6.80825 13.6471 6.17698 13.9273 5.61584 13.9073C4.98456 13.8873 3.79215 13.507 2.89784 13.1668C1.7931 12.7665 0.933866 12.5464 1.00401 11.8459C1.03908 11.4857 1.47747 11.1254 2.30163 10.7452C7.422 8.20348 10.8239 6.52235 12.5248 5.72182C17.3997 3.40027 18.3992 3 19.0656 3C19.2058 3 19.539 3.04003 19.7494 3.24016C19.9248 3.40027 19.9774 3.62042 19.9949 3.78052C19.9774 3.9006 20.0125 4.26084 19.9949 4.54103Z" />
    </symbol>

    <symbol id="vk" viewBox="0 0 24 24">
        <path
            d="M1 6.01041H4.78022C4.9011 11.964 7.67033 14.4828 9.86813 15.0032V6.01041H13.4176V11.1417C15.5824 10.9231 17.8681 8.58127 18.6374 6H22.1758C21.8871 7.33611 21.3107 8.60151 20.4825 9.71718C19.6544 10.8329 18.5923 11.7749 17.3626 12.4844C18.7352 13.1312 19.9474 14.0464 20.9191 15.1695C21.8909 16.2926 22.6001 17.5982 23 19H19.0989C18.2637 16.5332 16.1758 14.6181 13.4176 14.3579V19H12.978C5.46154 19 1.17582 14.1289 1 6.01041Z" />
        <path
            d="M1 6.01041H4.78022C4.9011 11.964 7.67033 14.4828 9.86813 15.0032V6.01041H13.4176V11.1417C15.5824 10.9231 17.8681 8.58127 18.6374 6H22.1758C21.8871 7.33611 21.3107 8.60151 20.4825 9.71718C19.6544 10.8329 18.5923 11.7749 17.3626 12.4844C18.7352 13.1312 19.9474 14.0464 20.9191 15.1695C21.8909 16.2926 22.6001 17.5982 23 19H19.0989C18.2637 16.5332 16.1758 14.6181 13.4176 14.3579V19H12.978C5.46154 19 1.17582 14.1289 1 6.01041Z" />
    </symbol>

    <symbol id='phone' viewBox="0 0 24 24">
        <path fill-rule="evenodd" clip-rule="evenodd"
            d="M16.2414 20.9974C14.9432 20.9497 11.264 20.4413 7.41092 16.5899C3.55871 12.7376 3.05115 9.0601 3.00247 7.76127C2.93035 5.78193 4.44671 3.85938 6.19837 3.10856C6.40931 3.0175 6.6403 2.98282 6.86869 3.00795C7.09707 3.03307 7.31499 3.11713 7.50108 3.25187C8.94351 4.30284 9.9388 5.8928 10.7934 7.14296C10.9815 7.41762 11.0619 7.75185 11.0193 8.08197C10.9768 8.41208 10.8142 8.715 10.5627 8.93302L8.80378 10.2391C8.7188 10.3004 8.65899 10.3905 8.63544 10.4926C8.6119 10.5947 8.62622 10.7019 8.67576 10.7943C9.07424 11.5181 9.78283 12.5961 10.5942 13.4073C11.4056 14.2185 12.5352 14.9738 13.3096 15.4172C13.4067 15.4717 13.521 15.487 13.629 15.4598C13.737 15.4327 13.8304 15.3652 13.8902 15.2712L15.0351 13.5289C15.2456 13.2494 15.5561 13.0621 15.9016 13.0063C16.2471 12.9506 16.6008 13.0306 16.8886 13.2297C18.1571 14.1076 19.6374 15.0856 20.721 16.4727C20.8667 16.6601 20.9594 16.8832 20.9894 17.1187C21.0194 17.3541 20.9855 17.5933 20.8914 17.8112C20.1368 19.5715 18.2274 21.0704 16.2414 20.9974Z" />
    </symbol>

    <symbol id="selectArrow" viewBox="0 0 24 24">
        <path
            d="M6.29551 9.29531C6.20187 9.38812 6.12755 9.49854 6.07683 9.62019C6.02611 9.74185 6 9.87234 6 10.0041C6 10.1359 6.02611 10.2664 6.07683 10.3881C6.12755 10.5097 6.20187 10.6202 6.29551 10.713L11.2907 15.7047C11.3836 15.7983 11.4941 15.8725 11.6158 15.9232C11.7375 15.9739 11.8681 16 12 16C12.1319 16 12.2625 15.9739 12.3842 15.9232C12.5059 15.8725 12.6164 15.7983 12.7093 15.7047L17.7045 10.713C17.7981 10.6202 17.8724 10.5097 17.9232 10.3881C17.9739 10.2664 18 10.1359 18 10.0041C18 9.87234 17.9739 9.74185 17.9232 9.62019C17.8724 9.49854 17.7981 9.38812 17.7045 9.29531C17.6116 9.20174 17.5011 9.12746 17.3794 9.07678C17.2576 9.02609 17.1271 9 16.9952 9C16.8633 9 16.7327 9.02609 16.611 9.07678C16.4892 9.12746 16.3787 9.20174 16.2859 9.29531L12 13.5882L7.71414 9.29531C7.62127 9.20174 7.51077 9.12746 7.38903 9.07678C7.26729 9.0261 7.13671 9 7.00483 9C6.87294 9 6.74236 9.0261 6.62062 9.07678C6.49888 9.12746 6.38839 9.20174 6.29551 9.29531Z" />
    </symbol>

    <symbol id='burger' viewBox="0 0 24 24">
        <path
            d="M3.66675 18C3.38342 18 3.14608 17.904 2.95475 17.712C2.76342 17.52 2.66742 17.2827 2.66675 17C2.66608 16.7173 2.76208 16.48 2.95475 16.288C3.14742 16.096 3.38475 16 3.66675 16H19.6667C19.9501 16 20.1877 16.096 20.3797 16.288C20.5717 16.48 20.6674 16.7173 20.6667 17C20.6661 17.2827 20.5701 17.5203 20.3787 17.713C20.1874 17.9057 19.9501 18.0013 19.6667 18H3.66675ZM3.66675 13C3.38342 13 3.14608 12.904 2.95475 12.712C2.76342 12.52 2.66742 12.2827 2.66675 12C2.66608 11.7173 2.76208 11.48 2.95475 11.288C3.14742 11.096 3.38475 11 3.66675 11H19.6667C19.9501 11 20.1877 11.096 20.3797 11.288C20.5717 11.48 20.6674 11.7173 20.6667 12C20.6661 12.2827 20.5701 12.5203 20.3787 12.713C20.1874 12.9057 19.9501 13.0013 19.6667 13H3.66675ZM3.66675 8C3.38342 8 3.14608 7.904 2.95475 7.712C2.76342 7.52 2.66742 7.28267 2.66675 7C2.66608 6.71733 2.76208 6.48 2.95475 6.288C3.14742 6.096 3.38475 6 3.66675 6H19.6667C19.9501 6 20.1877 6.096 20.3797 6.288C20.5717 6.48 20.6674 6.71733 20.6667 7C20.6661 7.28267 20.5701 7.52033 20.3787 7.713C20.1874 7.90566 19.9501 8.00133 19.6667 8H3.66675Z" />
    </symbol>

    <symbol id="stocks" viewBox="0 0 24 24">
        <path fill-rule="evenodd" clip-rule="evenodd"
            d="M14.5797 2.95003C13.8601 2.33681 12.9456 2 12.0002 2C11.0548 2 10.1403 2.33681 9.42074 2.95003L9.04692 3.26818C8.72856 3.53975 8.33263 3.70397 7.91552 3.73744L7.42537 3.77721C6.48284 3.85221 5.59786 4.26059 4.92919 4.92908C4.26052 5.59757 3.8519 6.48243 3.77664 7.42495L3.73786 7.91509C3.70467 8.3321 3.54081 8.72801 3.26959 9.0465L2.95045 9.42032C2.33697 10.14 2 11.0546 2 12.0003C2 12.9459 2.33697 13.8606 2.95045 14.5802L3.2686 14.9541C3.54018 15.2724 3.70439 15.6684 3.73786 16.0855L3.77763 16.5756C3.85264 17.5182 4.26101 18.4031 4.9295 19.0718C5.59799 19.7405 6.48286 20.1491 7.42537 20.2244L7.91552 20.2631C8.33252 20.2963 8.72843 20.4602 9.04692 20.7314L9.42074 21.0495C10.1404 21.663 11.0551 22 12.0007 22C12.9463 22 13.861 21.663 14.5807 21.0495L14.9545 20.7314C15.273 20.4602 15.6689 20.2963 16.0859 20.2631L16.576 20.2234C17.5186 20.1484 18.4036 19.74 19.0722 19.0715C19.7409 18.403 20.1495 17.5181 20.2248 16.5756L20.2626 16.0855C20.296 15.6684 20.4602 15.2724 20.7318 14.9541L21.05 14.5793C21.6632 13.8597 22 12.9452 22 11.9998C22 11.0544 21.6632 10.1399 21.05 9.42032L20.7318 9.0465C20.4602 8.72814 20.296 8.33221 20.2626 7.91509L20.2238 7.42495C20.1488 6.48241 19.7404 5.59744 19.0719 4.92876C18.4034 4.26009 17.5186 3.85148 16.576 3.77622L16.0859 3.73744C15.6689 3.70425 15.273 3.54039 14.9545 3.26917L14.5797 2.95003ZM10.7112 4.46421C11.071 4.15773 11.5281 3.9894 12.0007 3.9894C12.4733 3.9894 12.9304 4.15773 13.2902 4.46421L13.665 4.78335C14.3019 5.32614 15.0937 5.65422 15.9278 5.72088L16.418 5.76065C16.889 5.79836 17.3312 6.00258 17.6653 6.3367C17.9994 6.67082 18.2036 7.11301 18.2413 7.58402L18.2811 8.07417C18.3478 8.90829 18.6758 9.70013 19.2186 10.337L19.5368 10.7118C19.8433 11.0715 20.0116 11.5287 20.0116 12.0013C20.0116 12.4739 19.8433 12.931 19.5368 13.2908L19.2186 13.6656C18.6758 14.3024 18.3478 15.0943 18.2811 15.9284L18.2413 16.4185C18.2036 16.8895 17.9994 17.3317 17.6653 17.6659C17.3312 18 16.889 18.2042 16.418 18.2419L15.9278 18.2817C15.0937 18.3483 14.3019 18.6764 13.665 19.2192L13.2902 19.5374C12.9304 19.8438 12.4733 20.0122 12.0007 20.0122C11.5281 20.0122 11.071 19.8438 10.7112 19.5374L10.3364 19.2192C9.69956 18.6764 8.90772 18.3483 8.0736 18.2817L7.58345 18.2419C7.11226 18.2044 6.66984 18.0003 6.33551 17.6662C6.00119 17.332 5.79683 16.8897 5.75909 16.4185L5.71932 15.9284C5.65293 15.0944 5.32521 14.3026 4.78277 13.6656L4.46463 13.2908C4.15815 12.931 3.98983 12.4739 3.98983 12.0013C3.98983 11.5287 4.15815 11.0715 4.46463 10.7118L4.78277 10.337C5.32557 9.70013 5.65365 8.90829 5.72031 8.07417L5.76008 7.58402C5.79757 7.11283 6.00168 6.67041 6.33583 6.33608C6.66997 6.00176 7.11228 5.7974 7.58345 5.75966L8.0736 5.72088C8.90772 5.65422 9.69956 5.32614 10.3364 4.78335L10.7112 4.46421ZM15.6862 9.72157C15.7812 9.62985 15.8569 9.52015 15.909 9.39885C15.9611 9.27755 15.9886 9.14709 15.9897 9.01508C15.9909 8.88307 15.9657 8.75216 15.9157 8.62997C15.8657 8.50779 15.7919 8.39678 15.6986 8.30344C15.6052 8.21009 15.4942 8.13626 15.372 8.08627C15.2498 8.03629 15.1189 8.01113 14.9869 8.01228C14.8549 8.01342 14.7244 8.04085 14.6031 8.09296C14.4818 8.14506 14.3721 8.2208 14.2804 8.31576L8.31519 14.281C8.22023 14.3727 8.14449 14.4824 8.09238 14.6037C8.04028 14.725 8.01285 14.8555 8.01171 14.9875C8.01056 15.1195 8.03571 15.2504 8.0857 15.3726C8.13569 15.4948 8.20952 15.6058 8.30287 15.6991C8.39621 15.7925 8.50722 15.8663 8.6294 15.9163C8.75159 15.9663 8.8825 15.9914 9.01451 15.9903C9.14652 15.9891 9.27698 15.9617 9.39828 15.9096C9.51958 15.8575 9.62928 15.7818 9.72099 15.6868L15.6862 9.72157ZM11.0065 9.51477C11.0065 9.91029 10.8494 10.2896 10.5697 10.5693C10.29 10.849 9.91071 11.0061 9.51519 11.0061C9.11967 11.0061 8.74035 10.849 8.46068 10.5693C8.18101 10.2896 8.02389 9.91029 8.02389 9.51477C8.02389 9.11925 8.18101 8.73993 8.46068 8.46026C8.74035 8.18058 9.11967 8.02346 9.51519 8.02346C9.91071 8.02346 10.29 8.18058 10.5697 8.46026C10.8494 8.73993 11.0065 9.11925 11.0065 9.51477ZM14.4862 15.9771C14.8817 15.9771 15.2611 15.82 15.5407 15.5403C15.8204 15.2606 15.9775 14.8813 15.9775 14.4858C15.9775 14.0903 15.8204 13.711 15.5407 13.4313C15.2611 13.1516 14.8817 12.9945 14.4862 12.9945C14.0907 12.9945 13.7114 13.1516 13.4317 13.4313C13.152 13.711 12.9949 14.0903 12.9949 14.4858C12.9949 14.8813 13.152 15.2606 13.4317 15.5403C13.7114 15.82 14.0907 15.9771 14.4862 15.9771Z" />
    </symbol>

    <symbol id="compilation" viewBox="0 0 24 24">
        <path
            d="M23.7865 11.6574C23.6844 11.4843 23.5477 11.3325 23.3842 11.2109C23.2207 11.0893 23.0338 11.0005 22.8344 10.9494C22.1108 10.7695 21.3631 10.6972 20.617 10.735C21.0171 8.81767 20.717 7.30119 20.411 6.40193C20.289 6.03253 20.0289 5.72025 19.6815 5.52596C19.3341 5.33167 18.9242 5.26931 18.5317 5.35102C17.5139 5.56986 16.5462 5.96662 15.6763 6.5217C15.039 5.26475 14.1114 4.16595 12.9648 3.31006C12.687 3.1088 12.349 3 12.0017 3C11.6544 3 11.3164 3.1088 11.0385 3.31006C9.89174 4.1657 8.96403 5.26456 8.32713 6.5217C7.45718 5.96662 6.48944 5.56986 5.47169 5.35102C5.07923 5.26931 4.66933 5.33167 4.32189 5.52596C3.97445 5.72025 3.71439 6.03253 3.5924 6.40193C3.29235 7.30119 2.99231 8.8167 3.38637 10.735C2.64027 10.6972 1.89256 10.7695 1.16903 10.9494C0.969583 11.0005 0.782664 11.0893 0.619185 11.2109C0.455706 11.3325 0.318942 11.4843 0.216881 11.6574C0.11007 11.8348 0.0409092 12.031 0.0134343 12.2345C-0.0140406 12.438 0.000720439 12.6447 0.0568562 12.8426C0.395908 14.0568 1.43707 16.3663 4.59055 18.186C7.74404 20.0058 10.5145 20 12.0067 20C13.4989 20 16.2743 20 19.4078 18.186C22.5613 16.3663 23.6025 14.0568 23.9415 12.8426C23.9984 12.645 24.014 12.4385 23.9874 12.235C23.9608 12.0315 23.8925 11.8352 23.7865 11.6574ZM5.11463 6.87716C5.11583 6.87236 5.11888 6.86819 5.12315 6.8655C5.12743 6.86281 5.13261 6.86179 5.13764 6.86267C6.06829 7.06562 6.94653 7.44912 7.71903 7.98989C7.36735 9.10124 7.19266 10.2578 7.20095 11.4198C7.20095 13.2299 7.57801 14.7039 8.11209 15.8901C7.35283 15.1561 6.69586 14.3298 6.15779 13.4318C4.35552 10.4008 4.73057 8.02273 5.11463 6.87716ZM5.41468 16.8598C2.74727 15.3221 1.88214 13.4366 1.60009 12.4369C2.33602 12.2619 3.09969 12.2235 3.85044 12.3239C4.10104 12.9723 4.40715 13.5994 4.76558 14.1987C5.64561 15.6639 6.79848 16.9594 8.1661 18.0199C7.19904 17.7513 6.27265 17.3613 5.41068 16.8598H5.41468ZM12.0017 18.3C11.0685 17.6297 8.8012 15.5732 8.8012 11.4198C8.8012 7.31761 11.0395 5.24477 12.0017 4.54545C12.9638 5.2467 15.2022 7.31955 15.2022 11.4218C15.2022 15.5732 12.9348 17.6297 12.0017 18.3ZM16.2844 7.98989C17.0569 7.44947 17.9352 7.0663 18.8657 6.86364C18.8708 6.86276 18.876 6.86377 18.8802 6.86647C18.8845 6.86916 18.8876 6.87333 18.8888 6.87812C19.2728 8.02273 19.6479 10.4008 17.8456 13.4318C17.308 14.331 16.651 15.1584 15.8913 15.893C16.4254 14.7087 16.8024 13.2328 16.8024 11.4227C16.811 10.2597 16.6363 9.10217 16.2844 7.98989ZM22.4033 12.4389C22.1262 13.4289 21.2631 15.3182 18.5937 16.8598C17.7317 17.3609 16.8053 17.7506 15.8383 18.0189C17.2059 16.9584 18.3588 15.663 19.2388 14.1978C19.5972 13.5985 19.9033 12.9714 20.1539 12.323C20.9045 12.2231 21.6679 12.2621 22.4033 12.4379V12.4389Z" />
    </symbol>

    <symbol id="link-arrow" viewBox="0 0 24 25  ">
         <g clip-path="url(#clip0_3001_7955)">
    <path d="M19.7632 7.04037C19.7631 6.77521 19.6578 6.52092 19.4703 6.33342C19.2828 6.14592 19.0285 6.04056 18.7633 6.04052L7.25436 6.04055C7.12159 6.03824 6.9897 6.0624 6.86637 6.11161C6.74304 6.16082 6.63075 6.2341 6.53604 6.32717C6.44134 6.42024 6.36612 6.53125 6.31477 6.6537C6.26342 6.77616 6.23698 6.90761 6.23698 7.0404C6.23698 7.17318 6.26342 7.30463 6.31477 7.42709C6.36612 7.54954 6.44134 7.66055 6.53604 7.75362C6.63075 7.84669 6.74304 7.91997 6.86637 7.96918C6.9897 8.0184 7.12159 8.04255 7.25436 8.04024L16.3492 8.04022L5.73975 18.6497C5.55221 18.8372 5.44685 19.0916 5.44685 19.3568C5.44685 19.622 5.55221 19.8763 5.73974 20.0639C5.92728 20.2514 6.18163 20.3568 6.44685 20.3568C6.71207 20.3568 6.96642 20.2514 7.15396 20.0639L17.7635 9.45444L17.7635 18.6349C17.768 18.8971 17.8754 19.147 18.0624 19.3307C18.2494 19.5145 18.5011 19.6175 18.7633 19.6175C19.0255 19.6175 19.2772 19.5145 19.4642 19.3307C19.6513 19.147 19.7586 18.8971 19.7632 18.6349L19.7632 7.04037Z" />
  </g>
  <defs>
    <clipPath id="clip0_3001_7955">
      <rect width="24" height="24" fill="white" transform="translate(0 0.863159)" />
    </clipPath>
  </defs>
    </symbol>

    <symbol id="clubCard" viewBox="0 0 24 24">
        <g clip-path="url(#clip0_434_13968)">
            <path fill-rule="evenodd" clip-rule="evenodd"
                d="M21 3C21.7652 2.99996 22.5015 3.29233 23.0583 3.81728C23.615 4.34224 23.9501 5.06011 23.995 5.824L24 6V17C24 17.7652 23.7077 18.5015 23.1827 19.0583C22.6578 19.615 21.9399 19.9501 21.176 19.995L21 20H3C2.23479 20 1.49849 19.7077 0.941739 19.1827C0.384993 18.6578 0.0498925 17.9399 0.00500011 17.176L0 17L4.66045e-09 6C-4.26217e-05 5.23479 0.292325 4.49849 0.817284 3.94174C1.34224 3.38499 2.06011 3.04989 2.824 3.005L3 3L21 3ZM21 5H3C2.75507 5.00003 2.51866 5.08996 2.33563 5.25272C2.15259 5.41547 2.03566 5.63975 2.007 5.883L2 6V17C2.00003 17.2449 2.08996 17.4813 2.25272 17.6644C2.41547 17.8474 2.63975 17.9643 2.883 17.993L3 18H21C21.2449 18 21.4813 17.91 21.6644 17.7473C21.8474 17.5845 21.9643 17.3603 21.993 17.117L22 17V6C22 5.75507 21.91 5.51866 21.7473 5.33563C21.5845 5.15259 21.3603 5.03566 21.117 5.007L21 5ZM12.354 8.23211C12.6839 7.66063 13.2186 7.23595 13.85 7.04413C14.4813 6.85232 15.162 6.90772 15.754 7.19911L15.906 7.27911L16.499 7.62311C16.8078 7.80126 17.0785 8.03851 17.2955 8.32129C17.5126 8.60407 17.6719 8.92685 17.7642 9.27119C17.8565 9.61553 17.88 9.97468 17.8335 10.3281C17.787 10.6816 17.6713 11.0224 17.493 11.3311C17.1988 11.8397 16.7737 12.2603 16.262 12.549C15.7502 12.8378 15.1705 12.9842 14.583 12.9731L14.378 12.9631L15.346 14.6401C15.4746 14.8611 15.5136 15.1229 15.4551 15.3718C15.3967 15.6207 15.2451 15.8377 15.0315 15.9783C14.818 16.1189 14.5587 16.1723 14.3069 16.1276C14.0552 16.083 13.8301 15.9436 13.678 15.7381L13.614 15.6401L12 12.8451L10.386 15.6401C10.2578 15.8595 10.0508 16.0219 9.80711 16.0942C9.56345 16.1665 9.3014 16.1433 9.07423 16.0293C8.84705 15.9154 8.6718 15.7192 8.58408 15.4806C8.49637 15.2421 8.50277 14.9791 8.602 14.7451L8.654 14.6401L9.622 12.9631C9.00157 13.0136 8.37954 12.8871 7.82816 12.5982C7.27677 12.3093 6.81865 11.87 6.507 11.3311C6.16229 10.7344 6.05749 10.0289 6.21386 9.35773C6.37023 8.68657 6.77605 8.10003 7.349 7.71711L7.501 7.62311L8.095 7.28011C8.66638 6.95047 9.34169 6.85034 9.98413 7C10.6266 7.14966 11.1881 7.53791 11.555 8.08611L11.646 8.23211L12 8.84411L12.354 8.23211ZM14.086 9.23211L13.386 10.4441L14.005 10.8011C14.3002 10.9715 14.651 11.0177 14.9803 10.9295C15.3095 10.8414 15.5903 10.6262 15.761 10.3311C15.808 10.2498 15.8384 10.1601 15.8507 10.0671C15.8629 9.97399 15.8567 9.87944 15.8324 9.78878C15.808 9.69813 15.7661 9.61317 15.7089 9.53876C15.6517 9.46434 15.5803 9.40194 15.499 9.35511L14.905 9.01211C14.8367 8.97267 14.7613 8.94707 14.6832 8.93678C14.605 8.92649 14.5256 8.93172 14.4494 8.95215C14.3732 8.97258 14.3019 9.00782 14.2393 9.05586C14.1768 9.1039 14.1244 9.16379 14.085 9.23211M9.913 9.23211C9.84198 9.10888 9.72949 9.01489 9.5956 8.96691C9.46171 8.91892 9.31513 8.92005 9.182 8.97011L9.094 9.01211L8.5 9.35511C8.41866 9.40194 8.34734 9.46434 8.29014 9.53876C8.23294 9.61317 8.19097 9.69813 8.16664 9.78878C8.1423 9.87944 8.13608 9.97399 8.14832 10.0671C8.16057 10.1601 8.19104 10.2498 8.238 10.3311C8.39726 10.6068 8.65313 10.8136 8.95608 10.9115C9.25903 11.0094 9.58752 10.9914 9.878 10.8611L9.995 10.8011L10.613 10.4441L9.913 9.23211Z" />
        </g>
        <defs>
            <clipPath id="clip0_434_13968">
                <rect width="24" height="24" fill="white" />
            </clipPath>
        </defs>
    </symbol>

    <symbol id='logoFooter' viewBox="0 0 423 128">
        <path
            d="M53.1288 40.2759C53.1288 41.4713 52.9081 43.9724 53.1288 45.5172C47.8874 41.1035 35.1977 36.9655 34.9219 37.5172C34.646 38.069 37.1288 46.8966 40.715 54.8966C39.6115 54.8046 36.9632 54.6207 35.1977 54.6207C31.7035 48.4598 24.9908 32.2759 28.0253 29.7931C30.5081 28.4138 44.8529 33.3793 53.1288 40.2759Z"
            fill="#5E8A3B" />
        <path fill-rule="evenodd" clip-rule="evenodd"
            d="M14.5077 95.7242C15.3353 91.5862 37.1284 62.069 62.2318 71.1724C42.6456 51.0345 13.1288 64.2759 12.8529 65.6552C12.8237 65.8009 12.9054 65.9867 13.0847 66.2069C15.3353 68.1379 23.1062 72.408 30.5077 75.8621C29.772 76.2299 28.0249 77.2414 26.0938 79.4483C10.9215 73.1035 -0.388511 65.931 0.714962 63.7241C7.0594 58.7586 39.6111 48.8276 59.4732 64.8276C50.9215 49.1035 53.6801 21.5172 65.5422 1.65517C66.4101 0.201796 67.4732 0 68.0253 0V12.6897C61.6801 23.4483 50.5353 46.8966 65.5422 68.9655C66.0939 65.931 64.4383 57.931 60.0249 52.4138C59.7487 50.4828 59.1973 49.3793 59.1973 45.2414C61.6697 47.9388 64.4387 52.6897 66.6456 59.0345C67.4199 61.2606 67.4732 63.1724 68.0253 63.1724V76.9655C67.7491 76.9655 67.0225 77.797 66.9215 78.069C56.1628 107.034 13.8456 99.0345 14.5077 95.7242ZM23.887 91.8621C37.956 72 51.4732 70.3448 61.6801 74.2069C55.5008 79.2828 45.1284 79.1724 39.6111 78.3448C38.0663 79.4483 36.0252 81.3793 35.1977 82.2069C49.7635 84.6345 60.0253 80.2759 63.887 76.9655C56.1628 98.7586 23.887 93.7931 23.887 91.8621Z"
            fill="#5E8A3B" />
        <path
            d="M39.6111 61.7931C41.818 62.069 44.5766 62.6207 46.2318 62.8966C47.5192 64.2759 50.9215 67.3103 53.4042 68.4138C51.7491 68.1379 49.2663 67.8621 46.2318 68.6897C44.2088 66.8912 40.0525 62.9941 39.6111 61.7931Z"
            fill="#5E8A3B" />
        <path
            d="M82.9215 40.2759C82.9215 41.4713 83.1422 43.9724 82.9215 45.5172C88.1629 41.1035 100.853 36.9655 101.128 37.5172C101.404 38.069 98.9215 46.8966 95.3353 54.8966C96.4387 54.8046 99.087 54.6207 100.853 54.6207C104.347 48.4598 111.059 32.2759 108.025 29.7931C105.542 28.4138 91.1973 33.3793 82.9215 40.2759Z"
            fill="#5E8A3B" />
        <path fill-rule="evenodd" clip-rule="evenodd"
            d="M121.543 95.7242C120.715 91.5862 98.9219 62.069 73.8184 71.1724C93.4046 51.0345 122.921 64.2759 123.197 65.6552C123.226 65.8009 123.145 65.9867 122.966 66.2069C120.715 68.1379 112.944 72.408 105.543 75.8621C106.278 76.2299 108.025 77.2414 109.956 79.4483C125.129 73.1035 136.439 65.931 135.335 63.7241C128.991 58.7586 96.4391 48.8276 76.577 64.8276C85.1288 49.1035 82.3701 21.5172 70.5081 1.65517C69.6401 0.201796 68.5774 0 68.0253 0V12.6897C74.3705 23.4483 85.515 46.8966 70.5081 68.9655C69.9564 65.931 71.6119 57.931 76.0253 52.4138C76.3016 50.4828 76.8529 49.3793 76.8529 45.2414C74.3806 47.9388 71.6115 52.6897 69.4046 59.0345C68.6303 61.2606 68.5774 63.1724 68.0253 63.1724V76.9655C68.3015 76.9655 69.0277 77.797 69.1288 78.069C79.8874 107.034 122.205 99.0345 121.543 95.7242ZM112.163 91.8621C98.0943 72 84.577 70.3448 74.3701 74.2069C80.5495 79.2828 90.9219 79.1724 96.4391 78.3448C97.9839 79.4483 100.025 81.3793 100.853 82.2069C86.2867 84.6345 76.0249 80.2759 72.1633 76.9655C79.8874 98.7586 112.163 93.7931 112.163 91.8621Z"
            fill="#5E8A3B" />
        <path
            d="M96.4391 61.7931C94.2322 62.069 91.4736 62.6207 89.8184 62.8966C88.5311 64.2759 85.1288 67.3103 82.646 68.4138C84.3012 68.1379 86.7839 67.8621 89.8184 68.6897C91.8414 66.8912 95.9977 62.9941 96.4391 61.7931Z"
            fill="#5E8A3B" />
        <path
            d="M8.16285 118.069C26.9215 102.897 66.9215 85.2414 132.301 116.414L120.99 122.759C92.5766 111.172 65.5422 90.7586 8.16285 118.069Z"
            fill="#5E8A3B" />
        <path
            d="M9.81802 123.31C34.0939 111.724 87.887 101.374 95.3353 124.138C86.4157 116.69 58.9766 107.034 20.5766 128L9.81802 123.31Z"
            fill="#5E8A3B" />
        <path
            d="M177.305 69.6793C174.81 69.6793 172.487 69.2739 170.336 68.4633C168.216 67.6215 166.361 66.4523 164.771 64.9557C163.212 63.4279 161.996 61.6351 161.123 59.5773C160.25 57.5195 159.813 55.2745 159.813 52.8426C159.813 50.4106 160.25 48.1657 161.123 46.1079C161.996 44.0501 163.227 42.2729 164.817 40.7763C166.407 39.2486 168.263 38.0793 170.383 37.2687C172.503 36.4268 174.826 36.0059 177.351 36.0059C180.033 36.0059 182.48 36.4736 184.694 37.409C186.908 38.3132 188.778 39.6695 190.306 41.4779L186.378 45.1726C185.193 43.8942 183.868 42.9433 182.402 42.3197C180.937 41.6649 179.347 41.3376 177.632 41.3376C175.917 41.3376 174.342 41.6182 172.908 42.1794C171.505 42.7406 170.274 43.5357 169.214 44.5646C168.185 45.5935 167.374 46.8094 166.782 48.2125C166.22 49.6156 165.94 51.159 165.94 52.8426C165.94 54.5263 166.22 56.0696 166.782 57.4727C167.374 58.8758 168.185 60.0917 169.214 61.1206C170.274 62.1495 171.505 62.9446 172.908 63.5058C174.342 64.067 175.917 64.3476 177.632 64.3476C179.347 64.3476 180.937 64.0359 182.402 63.4123C183.868 62.7575 185.193 61.7754 186.378 60.4659L190.306 64.2073C188.778 65.9846 186.908 67.3409 184.694 68.2762C182.48 69.2116 180.017 69.6793 177.305 69.6793ZM191.104 69.2116L205.836 36.4736H211.822L226.601 69.2116H220.24L207.566 39.7006H209.998L197.371 69.2116H191.104ZM197.885 61.6351L199.522 56.8647H217.2L218.837 61.6351H197.885ZM253.415 66.4055V41.6182H240.6L240.366 47.4174C240.272 49.6 240.132 51.6734 239.945 53.6377C239.789 55.5708 239.524 57.3324 239.15 58.9225C238.807 60.5127 238.324 61.8377 237.7 62.8978C237.077 63.9579 236.313 64.6595 235.408 65.0024L228.861 64.067C230.046 64.1294 231.012 63.7241 231.76 62.8511C232.54 61.9781 233.148 60.7621 233.584 59.2031C234.021 57.6442 234.349 55.8202 234.567 53.7312C234.785 51.611 234.941 49.3194 235.034 46.8562L235.408 36.4736H259.401V66.4055H253.415ZM227.738 76.1801L227.785 64.067H264.125V76.1801H258.512V69.2116H233.397V76.1801H227.738ZM285.049 69.6793C282.492 69.6793 280.138 69.2584 277.987 68.4165C275.835 67.5747 273.965 66.4055 272.375 64.9089C270.784 63.3811 269.553 61.6039 268.68 59.5773C267.807 57.5195 267.37 55.2745 267.37 52.8426C267.37 50.4106 267.807 48.1814 268.68 46.1547C269.553 44.0969 270.784 42.3197 272.375 40.8231C273.965 39.2953 275.835 38.1105 277.987 37.2687C280.138 36.4268 282.477 36.0059 285.002 36.0059C287.559 36.0059 289.897 36.4268 292.018 37.2687C294.169 38.1105 296.04 39.2953 297.63 40.8231C299.22 42.3197 300.451 44.0969 301.325 46.1547C302.197 48.1814 302.634 50.4106 302.634 52.8426C302.634 55.2745 302.197 57.5195 301.325 59.5773C300.451 61.6351 299.22 63.4123 297.63 64.9089C296.04 66.4055 294.169 67.5747 292.018 68.4165C289.897 69.2584 287.575 69.6793 285.049 69.6793ZM285.002 64.3476C286.655 64.3476 288.183 64.067 289.586 63.5058C290.989 62.9446 292.205 62.1495 293.234 61.1206C294.263 60.0605 295.058 58.8446 295.619 57.4727C296.211 56.0696 296.507 54.5263 296.507 52.8426C296.507 51.159 296.211 49.6312 295.619 48.2593C295.058 46.8562 294.263 45.6402 293.234 44.6113C292.205 43.5512 290.989 42.7406 289.586 42.1794C288.183 41.6182 286.655 41.3376 285.002 41.3376C283.35 41.3376 281.822 41.6182 280.419 42.1794C279.047 42.7406 277.831 43.5512 276.771 44.6113C275.742 45.6402 274.931 46.8562 274.339 48.2593C273.778 49.6312 273.497 51.159 273.497 52.8426C273.497 54.4951 273.778 56.0228 274.339 57.4259C274.931 58.829 275.742 60.0605 276.771 61.1206C277.8 62.1495 279.016 62.9446 280.419 63.5058C281.822 64.067 283.35 64.3476 285.002 64.3476ZM309.402 69.2116V36.4736H324.041C327.72 36.4736 330.589 37.2063 332.647 38.6717C334.704 40.106 335.733 42.1794 335.733 44.8919C335.733 47.5734 334.751 49.6467 332.787 51.1122C330.823 52.5464 328.235 53.2635 325.023 53.2635L325.865 51.5799C329.513 51.5799 332.335 52.3126 334.33 53.778C336.325 55.2434 337.323 57.3635 337.323 60.1385C337.323 62.9758 336.279 65.2051 334.19 66.8264C332.101 68.4165 329.014 69.2116 324.93 69.2116H309.402ZM315.389 64.5347H324.743C326.863 64.5347 328.468 64.145 329.56 63.3655C330.651 62.5549 331.197 61.3233 331.197 59.6708C331.197 58.0183 330.651 56.8179 329.56 56.0696C328.468 55.2902 326.863 54.9004 324.743 54.9004H315.389V64.5347ZM315.389 50.4574H323.527C325.491 50.4574 326.987 50.0676 328.016 49.2882C329.045 48.4775 329.56 47.3239 329.56 45.8273C329.56 44.2684 329.045 43.0991 328.016 42.3197C326.987 41.5402 325.491 41.1505 323.527 41.1505H315.389V50.4574ZM359.355 47.5577C363.253 47.5577 366.262 48.4308 368.382 50.1768C370.503 51.9228 371.562 54.5419 371.562 58.0339C371.562 61.7131 370.393 64.5036 368.055 66.4055C365.747 68.2762 362.52 69.2116 358.373 69.2116H344.296V36.4736H350.283V47.5577H359.355ZM358.093 64.5347C360.431 64.5347 362.24 63.9891 363.518 62.8978C364.827 61.8066 365.482 60.2164 365.482 58.1275C365.482 56.0696 364.843 54.573 363.565 53.6377C362.287 52.6711 360.463 52.1879 358.093 52.1879H350.283V64.5347H358.093ZM376.286 69.2116V36.4736H382.272V69.2116H376.286ZM391.522 69.2116V36.4736H397.508V59.7176L415.093 36.4736H420.752V69.2116H414.766V46.0144L397.181 69.2116H391.522ZM406.067 34.2755C403.261 34.2755 401.14 33.6831 399.706 32.4983C398.303 31.3135 397.586 29.6454 397.555 27.4941H401.811C401.842 28.6477 402.216 29.5363 402.933 30.1599C403.682 30.7834 404.726 31.0952 406.067 31.0952C407.407 31.0952 408.452 30.7834 409.2 30.1599C409.979 29.5363 410.385 28.6477 410.416 27.4941H414.625C414.594 29.6454 413.861 31.3135 412.427 32.4983C410.993 33.6831 408.873 34.2755 406.067 34.2755ZM162.292 116.108V83.3699H168.278V110.964H184.787V83.3699H190.821V116.108H162.292ZM190.072 123.31V114.611L191.429 116.108H184.787V110.964H195.685V123.31H190.072ZM206.861 96.9799H223.137V101.984H206.861V96.9799ZM207.329 111.01H225.803V116.108H201.249V83.3699H225.148V88.4679H207.329V111.01ZM255.591 83.3699H261.671V116.108H255.591V83.3699ZM238.66 116.108H232.58V83.3699H238.66V116.108ZM256.058 102.078H238.146V96.8861H256.058V102.078ZM277.729 116.108V87.0179L279.179 88.5148H266.926V83.3699H294.612V88.5148H282.359L283.762 87.0179V116.108H277.729ZM299.856 116.108V83.3699H313.325C316.225 83.3699 318.704 83.8378 320.761 84.773C322.851 85.7087 324.456 87.0494 325.578 88.795C326.701 90.5412 327.262 92.6146 327.262 95.0157C327.262 97.4163 326.701 99.4897 325.578 101.236C324.456 102.982 322.851 104.322 320.761 105.258C318.704 106.193 316.225 106.661 313.325 106.661H303.223L305.936 103.808V116.108H299.856ZM305.936 104.463L303.223 101.516H313.045C315.726 101.516 317.737 100.955 319.078 99.8328C320.45 98.6792 321.136 97.0731 321.136 95.0157C321.136 92.9263 320.45 91.3208 319.078 90.1986C317.737 89.0759 315.726 88.5148 313.045 88.5148H303.223L305.936 85.5217V104.463Z"
            fill="#393939" />
    </symbol>

    <symbol id='navigator' viewBox="0 0 24 24">
        <g clip-path="url(#clip0_2001_932)">
    <path d="M14.2502 14.3266L20.7556 11.7103C20.9677 11.616 21.1268 11.4866 21.2329 11.3221C21.3389 11.1576 21.392 10.9806 21.392 10.7911C21.392 10.6016 21.3359 10.422 21.2237 10.2523C21.1115 10.0826 20.9496 9.94987 20.7379 9.85417L5.04012 3.80841C4.83977 3.72591 4.64225 3.7113 4.44756 3.76457C4.25287 3.81784 4.09095 3.90905 3.96178 4.03822C3.83262 4.16738 3.7414 4.32931 3.68813 4.524C3.63486 4.71869 3.64948 4.91621 3.73197 5.11656L9.77773 20.8143C9.87202 21.0265 10.0047 21.1884 10.1758 21.3001C10.347 21.4118 10.5266 21.4679 10.7147 21.4684C10.9027 21.4689 11.0798 21.4158 11.2457 21.3093C11.4116 21.2028 11.541 21.0437 11.6339 20.832L14.2502 14.3266Z" />
  </g>
  <defs>
    <clipPath id="clip0_2001_932">
      <rect width="24" height="24" fill="white" />
    </clipPath>
  </defs>
        <defs>
            <clipPath id="clip0_474_695">
                <rect width="24" height="24" fill="white" />
            </clipPath>
        </defs>
    </symbol>

    <symbol id='clock' viewBox="0 0 24 24">
        <path fill-rule="evenodd" clip-rule="evenodd" d="M12 2C13.3132 2 14.6136 2.25866 15.8268 2.7612C17.0401 3.26375 18.1425 4.00035 19.0711 4.92893C19.9997 5.85752 20.7362 6.95991 21.2388 8.17317C21.7413 9.38642 22 10.6868 22 12C22 14.6522 20.9464 17.1957 19.0711 19.0711C17.1957 20.9464 14.6522 22 12 22C6.47 22 2 17.5 2 12C2 9.34784 3.05357 6.8043 4.92893 4.92893C6.8043 3.05357 9.34784 2 12 2ZM12.5 12.25V7H11V13L16.25 16.15L17 14.92L12.5 12.25Z"/>
       </symbol>

    <symbol id='mail' viewBox="0 0 24 24">
        <path
            d="M4 20C3.45 20 2.97933 19.8043 2.588 19.413C2.19667 19.0217 2.00067 18.5507 2 18V6C2 5.45 2.196 4.97933 2.588 4.588C2.98 4.19667 3.45067 4.00067 4 4H20C20.55 4 21.021 4.196 21.413 4.588C21.805 4.98 22.0007 5.45067 22 6V18C22 18.55 21.8043 19.021 21.413 19.413C21.0217 19.805 20.5507 20.0007 20 20H4ZM12 12.825C12.0833 12.825 12.171 12.8123 12.263 12.787C12.355 12.7617 12.4423 12.7243 12.525 12.675L19.6 8.25C19.7333 8.16667 19.8333 8.06267 19.9 7.938C19.9667 7.81333 20 7.67567 20 7.525C20 7.19167 19.8583 6.94167 19.575 6.775C19.2917 6.60833 19 6.61667 18.7 6.8L12 11L5.3 6.8C5 6.61667 4.70833 6.61267 4.425 6.788C4.14167 6.96333 4 7.209 4 7.525C4 7.69167 4.03333 7.83767 4.1 7.963C4.16667 8.08833 4.26667 8.184 4.4 8.25L11.475 12.675C11.5583 12.725 11.646 12.7627 11.738 12.788C11.83 12.8133 11.9173 12.8257 12 12.825Z" />
    </symbol>

    <symbol id="yandexMap" viewBox="0 0 40 40">
        <rect width="40" height="40" rx="20" fill="#5E8A3B" />
        <g clip-path="url(#clip0_474_734)">
            <path
                d="M19.8936 12.6635C23.2716 12.6635 25.5639 15.2592 25.5639 18.0599C25.5639 19.1843 25.3183 20.3541 24.7451 21.581C21.422 21.581 20.6017 23.9571 20.4463 25.4534L20.436 25.5522C20.384 26.0866 20.3532 26.5148 20.3451 26.8369L19.4449 26.9775V26.9482C19.4324 26.4725 19.4001 25.9974 19.3482 25.5244L19.346 25.498C19.2023 24.0054 18.3995 21.581 15.0428 21.581C14.4688 20.3541 14.2232 19.1843 14.2232 18.0599C14.2232 15.2592 16.5163 12.6635 19.8936 12.6635Z"
                fill="white" />
            <path fill-rule="evenodd" clip-rule="evenodd"
                d="M31.9908 25.62C32.1286 28.9012 30.744 31.8852 26.1112 31.9867H25.615H14.3873H13.4478C11.4892 31.8731 9.88588 31.0351 8.93756 29.5724L31.9908 25.9753V25.62Z"
                fill="white" />
            <path
                d="M31.9908 16.1611L25.8014 15.1948C26.2647 16.0791 26.5073 17.062 26.5089 18.0599C26.5089 19.3542 26.2193 20.6447 25.6196 21.9404L25.602 21.9799L25.3469 22.5245H24.7458C23.5025 22.5245 22.6785 22.8957 22.139 23.5538C21.716 24.0699 21.4711 24.7667 21.389 25.5266L21.3861 25.55L21.3744 25.6715L21.3692 25.7242L21.359 25.8274C21.3275 26.1671 21.3069 26.4548 21.2959 26.689L31.9908 25.02V16.1611Z"
                fill="white" />
            <path
                d="M16.2421 12.7491C17.2933 12.0844 18.544 11.7199 19.8936 11.7199C21.7629 11.7199 23.4431 12.419 24.6659 13.6458C24.8198 13.801 24.965 13.9628 25.1021 14.1312L31.9908 15.2058V14.4783V13.9478C31.8963 9.5569 29.2623 8.10414 26.3014 8.00559H25.615H14.3873H13.8345C11.1633 8.08004 9.15744 9.25167 8.36746 11.5205L16.2421 12.7491Z"
                fill="white" />
            <path fill-rule="evenodd" clip-rule="evenodd"
                d="M18.5036 27.1246L18.4992 26.9101L18.4978 26.8501L18.4963 26.8186L18.4948 26.771C18.4853 26.5112 18.4611 26.1781 18.423 25.774L18.4157 25.6971L18.4025 25.5646C18.3262 24.8004 18.0851 24.0955 17.6621 23.5713C17.1291 22.9089 16.3132 22.5319 15.0794 22.5245H14.4402L14.1858 21.9799C13.5744 20.6711 13.2783 19.3673 13.2783 18.0599C13.2783 16.4158 13.9461 14.8259 15.122 13.6458L15.2246 13.5455L8.14037 12.4396C8.04231 13.034 8.01148 13.6862 8.01147 14.3722V25.62V26.5135C8.05413 27.3218 8.21473 28.0487 8.47706 28.689L18.5036 27.1246Z"
                fill="white" />
        </g>
        <defs>
            <clipPath id="clip0_474_734">
                <rect width="24" height="24" fill="white" transform="translate(8 8)" />
            </clipPath>
        </defs>
    </symbol>

    <symbol id="gis" viewBox="0 0 41 40">
        <rect x="0.5" width="40" height="40" rx="20" fill="#5E8A3B" />
        <g clip-path="url(#clip0_474_741)">
            <path fill-rule="evenodd" clip-rule="evenodd"
                d="M17.2338 26.2377C17.7945 26.99 18.3366 27.7618 18.783 28.588C19.221 29.4 19.518 30.239 19.802 31.113C19.8134 31.1481 19.8247 31.1848 19.8364 31.2225C19.9436 31.5688 20.0767 31.9991 20.497 32H20.504C20.8935 31.997 21.021 31.6297 21.1298 31.3165L21.131 31.313C21.1796 31.1726 21.2259 31.0314 21.2722 30.8901C21.3365 30.6943 21.4007 30.4985 21.471 30.305C21.591 29.971 21.713 29.638 21.854 29.313C22.279 28.336 22.904 27.444 23.523 26.586C23.9895 25.9403 24.4903 25.3161 24.9915 24.6915C25.9448 23.5033 26.8993 22.3137 27.621 20.972C28.8948 18.6038 29.2073 15.7175 28.1993 13.2L17.2338 26.2377ZM15.7296 24.3086C14.8438 23.2007 13.946 22.078 13.2853 20.8152L16.9964 16.4028C17.0027 16.5631 17.0205 16.7266 17.047 16.91C17.0902 17.1556 17.1603 17.3957 17.256 17.626C17.957 19.322 19.907 20.214 21.648 19.613L21.677 19.603L16.693 25.528C16.449 25.214 16.2033 24.902 15.956 24.592C15.8807 24.4976 15.8052 24.4032 15.7296 24.3086ZM17.56 14.3481L12.871 19.923C11.7249 17.0776 12.031 13.7243 13.899 11.2679L17.56 14.3481ZM23.569 8.58813L19.9978 12.8341C21.4128 12.639 22.861 13.3361 23.569 14.615C23.745 14.934 23.892 15.298 23.946 15.66C24.014 16.106 24.031 16.433 23.958 16.88L23.955 16.896L27.791 12.335C26.8572 10.6316 25.3631 9.30953 23.569 8.58813ZM22.661 8.28502L18.1525 13.6451L14.499 10.5708C15.2448 9.8 16.1313 9.17781 17.1114 8.73834C18.173 8.26234 19.3216 8.01098 20.485 8.00002C21.2035 7.99849 21.9191 8.09025 22.614 8.27302L22.661 8.28502Z"
                fill="white" />
        </g>
        <defs>
            <clipPath id="clip0_474_741">
                <rect width="24" height="24" fill="white" transform="translate(8.5 8)" />
            </clipPath>
        </defs>
    </symbol>

    <symbol id="googleMap" viewBox="0 0 41 40">
        <rect x="0.5" width="40" height="40" rx="20" fill="#5E8A3B" />
        <g clip-path="url(#clip0_474_727)">
            <path fill-rule="evenodd" clip-rule="evenodd"
                d="M10.8984 17.6C10.8984 12.2979 15.2859 8 20.6984 8C26.111 8 30.4984 12.2979 30.4984 17.6C30.4984 20.2501 29.4023 22.6496 27.6295 24.3867C27.1667 24.8403 26.5402 25.3468 25.8626 25.8946C23.9436 27.446 21.6145 29.3289 21.4334 31.28C21.3967 31.6758 21.1042 32 20.6984 32C20.2927 32 20.0002 31.6758 19.9634 31.28C19.7824 29.3289 17.4533 27.446 15.5343 25.8946C14.8567 25.3468 14.2301 24.8403 13.7674 24.3867C11.9946 22.6496 10.8984 20.2501 10.8984 17.6ZM24.1284 17.6003C24.1284 19.4559 22.5928 20.9603 20.6985 20.9603C18.8041 20.9603 17.2685 19.4559 17.2685 17.6003C17.2685 15.7446 18.8041 14.2403 20.6985 14.2403C22.5928 14.2403 24.1284 15.7446 24.1284 17.6003Z"
                fill="white" />
        </g>
        <defs>
            <clipPath id="clip0_474_727">
                <rect width="24" height="24" fill="white" transform="translate(8.5 8)" />
            </clipPath>
        </defs>
    </symbol>

    <symbol id="arrowLeft" viewBox="0 0 24 24">
        <path
            d="M13.7047 6.29551C13.6119 6.20187 13.5015 6.12755 13.3798 6.07683C13.2581 6.02611 13.1277 6 12.9959 6C12.8641 6 12.7336 6.02611 12.6119 6.07683C12.4903 6.12755 12.3798 6.20187 12.287 6.29551L7.29531 11.2907C7.20174 11.3836 7.12746 11.4941 7.07678 11.6158C7.0261 11.7375 7 11.8681 7 12C7 12.1319 7.0261 12.2625 7.07678 12.3842C7.12746 12.5059 7.20174 12.6164 7.29531 12.7093L12.287 17.7045C12.3798 17.7981 12.4903 17.8724 12.6119 17.9232C12.7336 17.9739 12.8641 18 12.9959 18C13.1277 18 13.2581 17.9739 13.3798 17.9232C13.5015 17.8724 13.6119 17.7981 13.7047 17.7045C13.7983 17.6116 13.8725 17.5011 13.9232 17.3794C13.9739 17.2576 14 17.1271 14 16.9952C14 16.8633 13.9739 16.7327 13.9232 16.611C13.8725 16.4892 13.7983 16.3787 13.7047 16.2859L9.4118 12L13.7047 7.71414C13.7983 7.62127 13.8725 7.51077 13.9232 7.38903C13.9739 7.26729 14 7.13671 14 7.00483C14 6.87294 13.9739 6.74236 13.9232 6.62062C13.8725 6.49888 13.7983 6.38839 13.7047 6.29551Z" />
    </symbol>

    <symbol id='search' viewBox="0 0 24 24">
        <path
            d="M9.65718 16.3144C7.79659 16.3144 6.22208 15.6698 4.93366 14.3807C3.64524 13.0916 3.00068 11.5171 3 9.65718C2.99932 7.79727 3.64387 6.22276 4.93366 4.93366C6.22344 3.64455 7.79795 3 9.65718 3C11.5164 3 13.0913 3.64455 14.3817 4.93366C15.6722 6.22276 16.3164 7.79727 16.3144 9.65718C16.3144 10.4083 16.1949 11.1166 15.9559 11.7824C15.7169 12.4481 15.3926 13.037 14.9829 13.5491L20.7183 19.2845C20.9061 19.4723 21 19.7112 21 20.0014C21 20.2916 20.9061 20.5306 20.7183 20.7183C20.5306 20.9061 20.2916 21 20.0014 21C19.7112 21 19.4723 20.9061 19.2845 20.7183L13.5491 14.9829C13.037 15.3926 12.4481 15.7169 11.7824 15.9559C11.1166 16.1949 10.4083 16.3144 9.65718 16.3144ZM9.65718 14.266C10.9374 14.266 12.0258 13.8181 12.9223 12.9223C13.8188 12.0265 14.2667 10.9381 14.266 9.65718C14.2653 8.37627 13.8174 7.28825 12.9223 6.39312C12.0271 5.49798 10.9388 5.04973 9.65718 5.04836C8.37559 5.047 7.28757 5.49525 6.39312 6.39312C5.49866 7.29098 5.05041 8.379 5.04836 9.65718C5.04632 10.9354 5.49457 12.0237 6.39312 12.9223C7.29167 13.8208 8.37969 14.2687 9.65718 14.266Z" />
    </symbol>
    <symbol id='attentionBottom' viewBox="0 0 24 24">
        <path
           fill-rule="evenodd" clip-rule="evenodd" d="M700 0.5H20C8.95431 0.5 0 9.45431 0 20.5V68.5C0 79.5457 8.95432 88.5 20 88.5H458C469.046 88.5 477.586 79.0095 482.889 69.3206C489.681 56.9135 502.858 48.5 518 48.5H700C711.046 48.5 720 39.5457 720 28.5L720 20.5C720 9.45431 711.046 0.5 700 0.5Z" fill="#DFE8D8"/>
    </symbol>
    <symbol id='circle' viewBox="0 0 24 25">
          <circle cx="12" cy="12.5" r="10" fill="#8EAD75" />
    </symbol>
    <symbol id='star' viewBox="0 0 24 25">
      <path d="M11.9996 18.8795L7.01961 21.8795C6.79961 22.0195 6.56961 22.0795 6.32961 22.0595C6.08961 22.0395 5.87961 21.9595 5.69961 21.8195C5.51961 21.6795 5.37961 21.5047 5.27961 21.2951C5.17961 21.0855 5.15961 20.8503 5.21961 20.5895L6.53961 14.9195L2.12961 11.1095C1.92961 10.9295 1.80481 10.7243 1.75521 10.4939C1.70561 10.2635 1.72041 10.0387 1.79961 9.81945C1.87881 9.60025 1.99881 9.42025 2.15961 9.27945C2.32041 9.13865 2.54041 9.04865 2.81961 9.00945L8.63961 8.49945L10.8896 3.15945C10.9896 2.91945 11.1448 2.73945 11.3552 2.61945C11.5656 2.49945 11.7804 2.43945 11.9996 2.43945C12.2188 2.43945 12.4336 2.49945 12.644 2.61945C12.8544 2.73945 13.0096 2.91945 13.1096 3.15945L15.3596 8.49945L21.1796 9.00945C21.4596 9.04945 21.6796 9.13945 21.8396 9.27945C21.9996 9.41945 22.1196 9.59945 22.1996 9.81945C22.2796 10.0395 22.2948 10.2647 22.2452 10.4951C22.1956 10.7255 22.0704 10.9303 21.8696 11.1095L17.4596 14.9195L18.7796 20.5895C18.8396 20.8495 18.8196 21.0847 18.7196 21.2951C18.6196 21.5055 18.4796 21.6803 18.2996 21.8195C18.1196 21.9587 17.9096 22.0387 17.6696 22.0595C17.4296 22.0803 17.1996 22.0203 16.9796 21.8795L11.9996 18.8795Z" fill="#8EAD75" />
      </symbol>
    <symbol id='attention' viewBox="0 0 24 25">
      <path d="M2.98789 21.5C2.80456 21.5 2.63789 21.4543 2.48789 21.363C2.33789 21.2717 2.22123 21.1507 2.13789 21C2.05456 20.8493 2.00889 20.6867 2.00089 20.512C1.99289 20.3373 2.03856 20.1667 2.13789 20L11.3879 4C11.4879 3.83333 11.6172 3.70833 11.7759 3.625C11.9346 3.54167 12.0969 3.5 12.2629 3.5C12.4289 3.5 12.5916 3.54167 12.7509 3.625C12.9102 3.70833 13.0392 3.83333 13.1379 4L22.3879 20C22.4879 20.1667 22.5339 20.3377 22.5259 20.513C22.5179 20.6883 22.4719 20.8507 22.3879 21C22.3039 21.1493 22.1872 21.2703 22.0379 21.363C21.8886 21.4557 21.7219 21.5013 21.5379 21.5H2.98789ZM12.2629 18.5C12.5462 18.5 12.7839 18.404 12.9759 18.212C13.1679 18.02 13.2636 17.7827 13.2629 17.5C13.2622 17.2173 13.1662 16.98 12.9749 16.788C12.7836 16.596 12.5462 16.5 12.2629 16.5C11.9796 16.5 11.7422 16.596 11.5509 16.788C11.3596 16.98 11.2636 17.2173 11.2629 17.5C11.2622 17.7827 11.3582 18.0203 11.5509 18.213C11.7436 18.4057 11.9809 18.5013 12.2629 18.5ZM12.2629 15.5C12.5462 15.5 12.7839 15.404 12.9759 15.212C13.1679 15.02 13.2636 14.7827 13.2629 14.5V11.5C13.2629 11.2167 13.1669 10.9793 12.9749 10.788C12.7829 10.5967 12.5456 10.5007 12.2629 10.5C11.9802 10.4993 11.7429 10.5953 11.5509 10.788C11.3589 10.9807 11.2629 11.218 11.2629 11.5V14.5C11.2629 14.7833 11.3589 15.021 11.5509 15.213C11.7429 15.405 11.9802 15.5007 12.2629 15.5Z" fill="#8EAD75" />
      </symbol>
    <symbol id='money' viewBox="0 0 24 25">
      <path fill-rule="evenodd" clip-rule="evenodd" d="M1 7.5V18.5C1 20 1.5 20.5 3 20.5H20V18H3.5V7.5H1ZM5 4.5V16.5H23V4.5H5ZM8.4125 13.0875C8.80417 13.4792 9 13.95 9 14.5H7V12.5C7.55 12.5 8.02083 12.6958 8.4125 13.0875ZM21 14.5H19C19 13.95 19.1958 13.4792 19.5875 13.0875C19.9792 12.6958 20.45 12.5 21 12.5V14.5ZM16.125 12.625C15.5417 13.2083 14.8333 13.5 14 13.5C13.1667 13.5 12.4583 13.2083 11.875 12.625C11.2917 12.0417 11 11.3333 11 10.5C11 9.66667 11.2917 8.95833 11.875 8.375C12.4583 7.79167 13.1667 7.5 14 7.5C14.8333 7.5 15.5417 7.79167 16.125 8.375C16.7083 8.95833 17 9.66667 17 10.5C17 11.3333 16.7083 12.0417 16.125 12.625ZM8.4125 7.9125C8.02083 8.30417 7.55 8.5 7 8.5V6.5H9C9 7.05 8.80417 7.52083 8.4125 7.9125ZM21 6.5V8.5C20.45 8.5 19.9792 8.30417 19.5875 7.9125C19.1958 7.52083 19 7.05 19 6.5H21Z" fill="#8EAD75"/>
      </symbol>
    <symbol id='circleAttention' viewBox="0 0 24 25">
      <path d="M11.325 17.5H12.825V11.5H11.325V17.5ZM11.9995 9.65C12.2332 9.65 12.4292 9.57333 12.5875 9.42C12.7458 9.26667 12.825 9.07667 12.825 8.85C12.825 8.60917 12.746 8.40733 12.588 8.2445C12.43 8.0815 12.2342 8 12.0005 8C11.7668 8 11.5708 8.0815 11.4125 8.2445C11.2542 8.40733 11.175 8.60917 11.175 8.85C11.175 9.07667 11.254 9.26667 11.412 9.42C11.57 9.57333 11.7658 9.65 11.9995 9.65ZM12.0068 22.5C10.6277 22.5 9.33192 22.2375 8.11925 21.7125C6.90642 21.1875 5.84583 20.4708 4.9375 19.5625C4.02917 18.6542 3.3125 17.593 2.7875 16.379C2.2625 15.165 2 13.8678 2 12.4875C2 11.1072 2.2625 9.81 2.7875 8.596C3.3125 7.382 4.02917 6.325 4.9375 5.425C5.84583 4.525 6.907 3.8125 8.121 3.2875C9.335 2.7625 10.6322 2.5 12.0125 2.5C13.3928 2.5 14.69 2.7625 15.904 3.2875C17.118 3.8125 18.175 4.525 19.075 5.425C19.975 6.325 20.6875 7.38333 21.2125 8.6C21.7375 9.81667 22 11.1144 22 12.4933C22 13.8723 21.7375 15.1681 21.2125 16.3807C20.6875 17.5936 19.975 18.6527 19.075 19.558C18.175 20.4632 17.1167 21.1798 15.9 21.708C14.6833 22.236 13.3856 22.5 12.0068 22.5Z" fill="#8EAD75"/>
      </symbol>
    <symbol id='close' viewBox="0 0 24 24">
      <path d="M12.166 13.4905L7.32191 18.7072C7.14067 18.9024 6.91 19 6.62989 19C6.34979 19 6.11912 18.9024 5.93788 18.7072C5.75664 18.512 5.66602 18.2636 5.66602 17.962C5.66602 17.6603 5.75664 17.4119 5.93788 17.2167L10.782 12L5.93788 6.78327C5.75664 6.58809 5.66602 6.33967 5.66602 6.03802C5.66602 5.73638 5.75664 5.48796 5.93788 5.29278C6.11912 5.09759 6.34979 5 6.62989 5C6.91 5 7.14067 5.09759 7.32191 5.29278L12.166 10.5095L17.0101 5.29278C17.1914 5.09759 17.422 5 17.7021 5C17.9822 5 18.2129 5.09759 18.3942 5.29278C18.5754 5.48796 18.666 5.73638 18.666 6.03802C18.666 6.33967 18.5754 6.58809 18.3942 6.78327L13.55 12L18.3942 17.2167C18.5754 17.4119 18.666 17.6603 18.666 17.962C18.666 18.2636 18.5754 18.512 18.3942 18.7072C18.2129 18.9024 17.9822 19 17.7021 19C17.422 19 17.1914 18.9024 17.0101 18.7072L12.166 13.4905Z" />
      </symbol>
    <symbol id='playIcon' viewBox="0 0 24 24">
      <path d="M19 12.1503C19 12.4155 18.8947 12.6698 18.7072 12.8573L10.5086 21.0559C10.32 21.2381 10.0674 21.3389 9.80525 21.3366C9.54305 21.3343 9.29224 21.2291 9.10683 21.0437C8.92142 20.8583 8.81625 20.6075 8.81397 20.3453L8.84989 4.00869C8.84874 3.87591 8.87404 3.74423 8.92432 3.62133C8.9746 3.49844 9.04886 3.38679 9.14275 3.29289C9.23664 3.199 9.34829 3.12475 9.47119 3.07447C9.59409 3.02419 9.72577 2.99888 9.85854 3.00004C9.99132 3.00119 10.1225 3.02878 10.2445 3.08119C10.3666 3.1336 10.4769 3.20978 10.5691 3.30529L18.7072 11.4433C18.8947 11.6309 19 11.8852 19 12.1503Z"/>
      </symbol>
      
    <symbol id='pauseIcon' viewBox="0 0 24 24">
      <path d="M7.0909 3C6.80163 3 6.52421 3.11848 6.31963 3.32938C6.11505 3.54036 6.00002 3.82639 6.00002 4.12476L6 19.8748C6 20.1731 6.11493 20.4593 6.31952 20.6703C6.5241 20.8812 6.80158 20.9998 7.0909 20.9998C7.38023 20.9998 7.6577 20.8812 7.86228 20.6703C8.06687 20.4593 8.1818 20.1731 8.1818 19.8748L8.18182 4.12476C8.18182 3.82639 8.06675 3.54036 7.86217 3.32938C7.65759 3.11848 7.38017 3 7.0909 3Z"/>
<path d="M15.8182 4.12524L15.8182 19.8752C15.8182 20.1736 15.9332 20.4596 16.1378 20.6706C16.3424 20.8815 16.6198 21 16.9091 21C17.1983 21 17.4758 20.8815 17.6803 20.6706C17.8849 20.4596 18 20.1736 18 19.8752L18 4.12524C18 3.82687 17.885 3.54072 17.6805 3.32975C17.4759 3.11877 17.1984 3.00024 16.9091 3.00024C16.6198 3.00024 16.3423 3.11877 16.1377 3.32975C15.9331 3.54072 15.8182 3.82687 15.8182 4.12524Z"/>
      </symbol>

<symbol id="checkMark" width="24" height="24" viewBox="0 0 24 24" fill="none">
  <path d="M9.79671 15.3808L18.0177 6.32071C18.2117 6.1069 18.438 6 18.6967 6C18.9554 6 19.1817 6.1069 19.3757 6.32071C19.5697 6.53452 19.6667 6.7886 19.6667 7.08294C19.6667 7.37728 19.5697 7.631 19.3757 7.8441L10.4757 17.6793C10.2817 17.8931 10.0554 18 9.79671 18C9.53803 18 9.31169 17.8931 9.11769 17.6793L4.94656 13.0824C4.75256 12.8686 4.65944 12.6149 4.6672 12.3212C4.67496 12.0276 4.77616 11.7735 4.97081 11.559C5.16547 11.3445 5.39601 11.2376 5.66245 11.2383C5.92888 11.239 6.1591 11.3459 6.35311 11.559L9.79671 15.3808Z" fill="white" />
</symbol>

</svg>

