<svg width="22" height="21" viewBox="0 0 22 21" fill="none" xmlns="http://www.w3.org/2000/svg">
<path d="M10.9996 16.8795L6.01961 19.8795C5.79961 20.0195 5.56961 20.0795 5.32961 20.0595C5.08961 20.0395 4.87961 19.9595 4.69961 19.8195C4.51961 19.6795 4.37961 19.5047 4.27961 19.2951C4.17961 19.0855 4.15961 18.8503 4.21961 18.5895L5.53961 12.9195L1.12961 9.10945C0.929613 8.92945 0.804813 8.72425 0.755213 8.49385C0.705613 8.26345 0.720413 8.03865 0.799613 7.81945C0.878813 7.60025 0.998813 7.42025 1.15961 7.27945C1.32041 7.13865 1.54041 7.04865 1.81961 7.00945L7.63961 6.49945L9.88961 1.15945C9.98961 0.919453 10.1448 0.739453 10.3552 0.619453C10.5656 0.499453 10.7804 0.439453 10.9996 0.439453C11.2188 0.439453 11.4336 0.499453 11.644 0.619453C11.8544 0.739453 12.0096 0.919453 12.1096 1.15945L14.3596 6.49945L20.1796 7.00945C20.4596 7.04945 20.6796 7.13945 20.8396 7.27945C20.9996 7.41945 21.1196 7.59945 21.1996 7.81945C21.2796 8.03945 21.2948 8.26465 21.2452 8.49505C21.1956 8.72545 21.0704 8.93025 20.8696 9.10945L16.4596 12.9195L17.7796 18.5895C17.8396 18.8495 17.8196 19.0847 17.7196 19.2951C17.6196 19.5055 17.4796 19.6803 17.2996 19.8195C17.1196 19.9587 16.9096 20.0387 16.6696 20.0595C16.4296 20.0803 16.1996 20.0203 15.9796 19.8795L10.9996 16.8795Z" fill="#8EAD75"/>
</svg>
