<svg width="24" height="24" viewBox="0 0 24 24" fill="none" xmlns="http://www.w3.org/2000/svg">
<path fill-rule="evenodd" clip-rule="evenodd" d="M14.5797 2.95003C13.8601 2.33681 12.9456 2 12.0002 2C11.0548 2 10.1403 2.33681 9.42074 2.95003L9.04692 3.26818C8.72856 3.53975 8.33263 3.70397 7.91552 3.73744L7.42537 3.77721C6.48284 3.85221 5.59786 4.26059 4.92919 4.92908C4.26052 5.59757 3.8519 6.48243 3.77664 7.42495L3.73786 7.91509C3.70467 8.3321 3.54081 8.72801 3.26959 9.0465L2.95045 9.42032C2.33697 10.14 2 11.0546 2 12.0003C2 12.9459 2.33697 13.8606 2.95045 14.5802L3.2686 14.9541C3.54018 15.2724 3.70439 15.6684 3.73786 16.0855L3.77763 16.5756C3.85264 17.5182 4.26101 18.4031 4.9295 19.0718C5.59799 19.7405 6.48286 20.1491 7.42537 20.2244L7.91552 20.2631C8.33252 20.2963 8.72843 20.4602 9.04692 20.7314L9.42074 21.0495C10.1404 21.663 11.0551 22 12.0007 22C12.9463 22 13.861 21.663 14.5807 21.0495L14.9545 20.7314C15.273 20.4602 15.6689 20.2963 16.0859 20.2631L16.576 20.2234C17.5186 20.1484 18.4036 19.74 19.0722 19.0715C19.7409 18.403 20.1495 17.5181 20.2248 16.5756L20.2626 16.0855C20.296 15.6684 20.4602 15.2724 20.7318 14.9541L21.05 14.5793C21.6632 13.8597 22 12.9452 22 11.9998C22 11.0544 21.6632 10.1399 21.05 9.42032L20.7318 9.0465C20.4602 8.72814 20.296 8.33221 20.2626 7.91509L20.2238 7.42495C20.1488 6.48241 19.7404 5.59744 19.0719 4.92876C18.4034 4.26009 17.5186 3.85148 16.576 3.77622L16.0859 3.73744C15.6689 3.70425 15.273 3.54039 14.9545 3.26917L14.5797 2.95003ZM10.7112 4.46421C11.071 4.15773 11.5281 3.9894 12.0007 3.9894C12.4733 3.9894 12.9304 4.15773 13.2902 4.46421L13.665 4.78335C14.3019 5.32614 15.0937 5.65422 15.9278 5.72088L16.418 5.76065C16.889 5.79836 17.3312 6.00258 17.6653 6.3367C17.9994 6.67082 18.2036 7.11301 18.2413 7.58402L18.2811 8.07417C18.3478 8.90829 18.6758 9.70013 19.2186 10.337L19.5368 10.7118C19.8433 11.0715 20.0116 11.5287 20.0116 12.0013C20.0116 12.4739 19.8433 12.931 19.5368 13.2908L19.2186 13.6656C18.6758 14.3024 18.3478 15.0943 18.2811 15.9284L18.2413 16.4185C18.2036 16.8895 17.9994 17.3317 17.6653 17.6659C17.3312 18 16.889 18.2042 16.418 18.2419L15.9278 18.2817C15.0937 18.3483 14.3019 18.6764 13.665 19.2192L13.2902 19.5374C12.9304 19.8438 12.4733 20.0122 12.0007 20.0122C11.5281 20.0122 11.071 19.8438 10.7112 19.5374L10.3364 19.2192C9.69956 18.6764 8.90772 18.3483 8.0736 18.2817L7.58345 18.2419C7.11226 18.2044 6.66984 18.0003 6.33551 17.6662C6.00119 17.332 5.79683 16.8897 5.75909 16.4185L5.71932 15.9284C5.65293 15.0944 5.32521 14.3026 4.78277 13.6656L4.46463 13.2908C4.15815 12.931 3.98983 12.4739 3.98983 12.0013C3.98983 11.5287 4.15815 11.0715 4.46463 10.7118L4.78277 10.337C5.32557 9.70013 5.65365 8.90829 5.72031 8.07417L5.76008 7.58402C5.79757 7.11283 6.00168 6.67041 6.33583 6.33608C6.66997 6.00176 7.11228 5.7974 7.58345 5.75966L8.0736 5.72088C8.90772 5.65422 9.69956 5.32614 10.3364 4.78335L10.7112 4.46421ZM15.6862 9.72157C15.7812 9.62985 15.8569 9.52015 15.909 9.39885C15.9611 9.27755 15.9886 9.14709 15.9897 9.01508C15.9909 8.88307 15.9657 8.75216 15.9157 8.62997C15.8657 8.50779 15.7919 8.39678 15.6986 8.30344C15.6052 8.21009 15.4942 8.13626 15.372 8.08627C15.2498 8.03629 15.1189 8.01113 14.9869 8.01228C14.8549 8.01342 14.7244 8.04085 14.6031 8.09296C14.4818 8.14506 14.3721 8.2208 14.2804 8.31576L8.31519 14.281C8.22023 14.3727 8.14449 14.4824 8.09238 14.6037C8.04028 14.725 8.01285 14.8555 8.01171 14.9875C8.01056 15.1195 8.03571 15.2504 8.0857 15.3726C8.13569 15.4948 8.20952 15.6058 8.30287 15.6991C8.39621 15.7925 8.50722 15.8663 8.6294 15.9163C8.75159 15.9663 8.8825 15.9914 9.01451 15.9903C9.14652 15.9891 9.27698 15.9617 9.39828 15.9096C9.51958 15.8575 9.62928 15.7818 9.72099 15.6868L15.6862 9.72157ZM11.0065 9.51477C11.0065 9.91029 10.8494 10.2896 10.5697 10.5693C10.29 10.849 9.91071 11.0061 9.51519 11.0061C9.11967 11.0061 8.74035 10.849 8.46068 10.5693C8.18101 10.2896 8.02389 9.91029 8.02389 9.51477C8.02389 9.11925 8.18101 8.73993 8.46068 8.46026C8.74035 8.18058 9.11967 8.02346 9.51519 8.02346C9.91071 8.02346 10.29 8.18058 10.5697 8.46026C10.8494 8.73993 11.0065 9.11925 11.0065 9.51477ZM14.4862 15.9771C14.8817 15.9771 15.2611 15.82 15.5407 15.5403C15.8204 15.2606 15.9775 14.8813 15.9775 14.4858C15.9775 14.0903 15.8204 13.711 15.5407 13.4313C15.2611 13.1516 14.8817 12.9945 14.4862 12.9945C14.0907 12.9945 13.7114 13.1516 13.4317 13.4313C13.152 13.711 12.9949 14.0903 12.9949 14.4858C12.9949 14.8813 13.152 15.2606 13.4317 15.5403C13.7114 15.82 14.0907 15.9771 14.4862 15.9771Z" fill="#8EAD75"/>
</svg>
