<svg width="24" height="24" viewBox="0 0 24 24" fill="none" xmlns="http://www.w3.org/2000/svg">
<path d="M19.9949 4.54103C19.7319 7.70314 18.5921 15.3883 18.0134 18.9306C17.7679 20.4316 17.2769 20.932 16.821 20.992C15.804 21.0921 15.0324 20.2315 14.0504 19.491C12.5073 18.3302 11.6305 17.6098 10.14 16.489C8.40398 15.1881 9.52626 14.4677 10.5258 13.3069C10.7888 13.0067 15.2779 8.34357 15.3656 7.92329C15.3778 7.85963 15.3761 7.79355 15.3609 7.73077C15.3456 7.66799 15.3171 7.61042 15.2779 7.56305C15.1727 7.46298 15.0324 7.50301 14.9096 7.52302C14.7518 7.56305 12.2969 9.42429 7.50967 13.1068C6.80825 13.6471 6.17698 13.9273 5.61584 13.9073C4.98456 13.8873 3.79215 13.507 2.89784 13.1668C1.7931 12.7665 0.933866 12.5464 1.00401 11.8459C1.03908 11.4857 1.47747 11.1254 2.30163 10.7452C7.422 8.20348 10.8239 6.52235 12.5248 5.72182C17.3997 3.40027 18.3992 3 19.0656 3C19.2058 3 19.539 3.04003 19.7494 3.24016C19.9248 3.40027 19.9774 3.62042 19.9949 3.78052C19.9774 3.9006 20.0125 4.26084 19.9949 4.54103Z" fill="white"/>
<path d="M19.9949 4.54103C19.7319 7.70314 18.5921 15.3883 18.0134 18.9306C17.7679 20.4316 17.2769 20.932 16.821 20.992C15.804 21.0921 15.0324 20.2315 14.0504 19.491C12.5073 18.3302 11.6305 17.6098 10.14 16.489C8.40398 15.1881 9.52626 14.4677 10.5258 13.3069C10.7888 13.0067 15.2779 8.34357 15.3656 7.92329C15.3778 7.85963 15.3761 7.79355 15.3609 7.73077C15.3456 7.66799 15.3171 7.61042 15.2779 7.56305C15.1727 7.46298 15.0324 7.50301 14.9096 7.52302C14.7518 7.56305 12.2969 9.42429 7.50967 13.1068C6.80825 13.6471 6.17698 13.9273 5.61584 13.9073C4.98456 13.8873 3.79215 13.507 2.89784 13.1668C1.7931 12.7665 0.933866 12.5464 1.00401 11.8459C1.03908 11.4857 1.47747 11.1254 2.30163 10.7452C7.422 8.20348 10.8239 6.52235 12.5248 5.72182C17.3997 3.40027 18.3992 3 19.0656 3C19.2058 3 19.539 3.04003 19.7494 3.24016C19.9248 3.40027 19.9774 3.62042 19.9949 3.78052C19.9774 3.9006 20.0125 4.26084 19.9949 4.54103Z" fill="white"/>
</svg>
