<svg width="24" height="24" viewBox="0 0 24 24" fill="none" xmlns="http://www.w3.org/2000/svg">
<path d="M1 6.01041H4.78022C4.9011 11.964 7.67033 14.4828 9.86813 15.0032V6.01041H13.4176V11.1417C15.5824 10.9231 17.8681 8.58127 18.6374 6H22.1758C21.8871 7.33611 21.3107 8.60151 20.4825 9.71718C19.6544 10.8329 18.5923 11.7749 17.3626 12.4844C18.7352 13.1312 19.9474 14.0464 20.9191 15.1695C21.8909 16.2926 22.6001 17.5982 23 19H19.0989C18.2637 16.5332 16.1758 14.6181 13.4176 14.3579V19H12.978C5.46154 19 1.17582 14.1289 1 6.01041Z" fill="white"/>
<path d="M1 6.01041H4.78022C4.9011 11.964 7.67033 14.4828 9.86813 15.0032V6.01041H13.4176V11.1417C15.5824 10.9231 17.8681 8.58127 18.6374 6H22.1758C21.8871 7.33611 21.3107 8.60151 20.4825 9.71718C19.6544 10.8329 18.5923 11.7749 17.3626 12.4844C18.7352 13.1312 19.9474 14.0464 20.9191 15.1695C21.8909 16.2926 22.6001 17.5982 23 19H19.0989C18.2637 16.5332 16.1758 14.6181 13.4176 14.3579V19H12.978C5.46154 19 1.17582 14.1289 1 6.01041Z" fill="white"/>
</svg>
