<svg width="40" height="40" viewBox="0 0 40 40" fill="none" xmlns="http://www.w3.org/2000/svg">
<rect width="40" height="40" rx="20" fill="#5E8A3B"/>
<g clip-path="url(#clip0_474_734)">
<path d="M19.8936 12.6635C23.2716 12.6635 25.5639 15.2592 25.5639 18.0599C25.5639 19.1843 25.3183 20.3541 24.7451 21.581C21.422 21.581 20.6017 23.9571 20.4463 25.4534L20.436 25.5522C20.384 26.0866 20.3532 26.5148 20.3451 26.8369L19.4449 26.9775V26.9482C19.4324 26.4725 19.4001 25.9974 19.3482 25.5244L19.346 25.498C19.2023 24.0054 18.3995 21.581 15.0428 21.581C14.4688 20.3541 14.2232 19.1843 14.2232 18.0599C14.2232 15.2592 16.5163 12.6635 19.8936 12.6635Z" fill="white"/>
<path fill-rule="evenodd" clip-rule="evenodd" d="M31.9908 25.62C32.1286 28.9012 30.744 31.8852 26.1112 31.9867H25.615H14.3873H13.4478C11.4892 31.8731 9.88588 31.0351 8.93756 29.5724L31.9908 25.9753V25.62Z" fill="white"/>
<path d="M31.9908 16.1611L25.8014 15.1948C26.2647 16.0791 26.5073 17.062 26.5089 18.0599C26.5089 19.3542 26.2193 20.6447 25.6196 21.9404L25.602 21.9799L25.3469 22.5245H24.7458C23.5025 22.5245 22.6785 22.8957 22.139 23.5538C21.716 24.0699 21.4711 24.7667 21.389 25.5266L21.3861 25.55L21.3744 25.6715L21.3692 25.7242L21.359 25.8274C21.3275 26.1671 21.3069 26.4548 21.2959 26.689L31.9908 25.02V16.1611Z" fill="white"/>
<path d="M16.2421 12.7491C17.2933 12.0844 18.544 11.7199 19.8936 11.7199C21.7629 11.7199 23.4431 12.419 24.6659 13.6458C24.8198 13.801 24.965 13.9628 25.1021 14.1312L31.9908 15.2058V14.4783V13.9478C31.8963 9.5569 29.2623 8.10414 26.3014 8.00559H25.615H14.3873H13.8345C11.1633 8.08004 9.15744 9.25167 8.36746 11.5205L16.2421 12.7491Z" fill="white"/>
<path fill-rule="evenodd" clip-rule="evenodd" d="M18.5036 27.1246L18.4992 26.9101L18.4978 26.8501L18.4963 26.8186L18.4948 26.771C18.4853 26.5112 18.4611 26.1781 18.423 25.774L18.4157 25.6971L18.4025 25.5646C18.3262 24.8004 18.0851 24.0955 17.6621 23.5713C17.1291 22.9089 16.3132 22.5319 15.0794 22.5245H14.4402L14.1858 21.9799C13.5744 20.6711 13.2783 19.3673 13.2783 18.0599C13.2783 16.4158 13.9461 14.8259 15.122 13.6458L15.2246 13.5455L8.14037 12.4396C8.04231 13.034 8.01148 13.6862 8.01147 14.3722V25.62V26.5135C8.05413 27.3218 8.21473 28.0487 8.47706 28.689L18.5036 27.1246Z" fill="white"/>
</g>
<defs>
<clipPath id="clip0_474_734">
<rect width="24" height="24" fill="white" transform="translate(8 8)"/>
</clipPath>
</defs>
</svg>
